<svg id="svg" version="1.1" xmlns="http://www.w3.org/2000/svg" xmlns:xlink="http://www.w3.org/1999/xlink" width="400" height="400" viewBox="0, 0, 400,400"><g id="svgg"><path id="path0" d="M44.200 14.097 C 40.182 15.091,36.721 17.784,35.070 21.200 L 34.200 23.000 34.200 173.400 L 34.200 323.800 35.155 325.668 C 36.414 328.130,38.486 330.218,40.977 331.532 L 43.000 332.600 81.200 332.600 L 119.400 332.600 119.616 324.200 C 119.809 316.714,119.935 315.517,120.773 313.200 C 126.275 297.981,146.631 294.896,156.406 307.800 C 157.560 309.324,159.600 313.673,159.600 314.611 C 159.600 315.129,159.780 315.664,160.000 315.800 C 160.246 315.952,160.400 319.274,160.400 324.434 L 160.400 332.820 166.700 332.710 L 173.000 332.600 173.235 323.800 C 173.462 315.285,173.706 313.029,174.448 312.570 C 174.641 312.451,174.800 312.084,174.800 311.754 C 174.800 311.425,175.508 310.113,176.374 308.839 C 186.339 294.165,207.641 297.635,213.143 314.828 C 213.425 315.710,213.600 319.426,213.600 324.528 C 213.600 332.144,213.655 332.799,214.300 332.787 C 215.767 332.761,217.909 329.628,219.216 325.600 C 220.202 322.560,220.086 23.383,219.098 20.680 C 218.067 17.862,216.855 15.619,215.783 14.546 L 214.836 13.600 130.318 13.651 C 76.076 13.683,45.227 13.843,44.200 14.097 M197.800 26.800 C 197.936 27.020,198.468 27.200,198.983 27.200 C 202.357 27.200,209.001 32.642,211.536 37.483 C 212.659 39.626,212.800 39.994,212.800 40.771 C 212.800 41.201,212.980 41.664,213.200 41.800 C 213.462 41.962,213.600 55.029,213.600 79.697 C 213.600 121.132,213.684 119.650,211.146 123.262 C 210.736 123.846,210.400 124.477,210.400 124.665 C 210.400 125.425,204.466 130.664,202.600 131.551 C 197.224 134.106,200.218 134.000,133.400 134.000 C 67.728 134.000,69.886 134.067,64.800 131.859 C 59.450 129.536,55.015 124.065,53.374 117.766 C 52.521 114.488,52.521 45.512,53.374 42.234 C 54.635 37.394,56.768 34.078,60.876 30.568 C 61.717 29.849,62.993 29.111,66.095 27.550 C 66.477 27.357,67.231 27.200,67.771 27.200 C 68.311 27.200,68.864 27.020,69.000 26.800 C 69.342 26.246,197.458 26.246,197.800 26.800 M140.600 146.824 C 149.938 147.679,167.497 153.719,168.733 156.500 C 168.807 156.665,169.122 156.800,169.433 156.800 C 169.745 156.800,170.000 156.980,170.000 157.200 C 170.000 157.420,170.270 157.600,170.600 157.600 C 170.930 157.600,171.200 157.780,171.200 158.000 C 171.200 158.220,171.393 158.400,171.629 158.400 C 171.864 158.400,172.286 158.625,172.565 158.900 C 172.845 159.175,173.674 159.850,174.408 160.400 C 177.153 162.457,178.285 163.470,181.547 166.792 C 183.388 168.666,185.722 171.370,186.734 172.800 C 187.745 174.230,188.677 175.490,188.804 175.600 C 189.069 175.829,190.447 178.153,193.200 183.012 C 193.640 183.789,194.000 184.689,194.000 185.012 C 194.000 185.335,194.180 185.600,194.400 185.600 C 194.620 185.600,194.800 185.872,194.800 186.205 C 194.800 186.538,194.959 187.123,195.153 187.505 C 195.629 188.440,196.218 189.907,196.800 191.600 C 197.064 192.370,197.429 193.360,197.610 193.800 C 197.791 194.240,198.053 195.140,198.191 195.800 C 198.330 196.460,198.623 197.810,198.843 198.800 C 201.420 210.407,200.822 222.701,197.120 234.200 C 195.932 237.889,191.769 246.858,191.116 247.133 C 190.942 247.207,190.800 247.446,190.800 247.665 C 190.800 249.833,181.734 260.344,175.068 265.904 C 171.671 268.738,163.083 273.663,158.000 275.694 C 157.450 275.914,156.687 276.252,156.305 276.447 C 155.923 276.641,155.336 276.800,155.000 276.800 C 154.664 276.800,154.077 276.958,153.695 277.151 C 152.567 277.720,150.204 278.400,149.352 278.400 C 148.916 278.400,148.389 278.563,148.180 278.761 C 147.768 279.153,146.086 279.395,139.600 279.998 C 137.290 280.212,135.104 280.459,134.742 280.546 C 132.916 280.983,117.862 279.013,115.400 278.015 C 114.960 277.837,113.790 277.459,112.800 277.176 C 111.810 276.893,110.829 276.512,110.620 276.330 C 110.411 276.149,109.826 276.000,109.320 276.000 C 108.814 276.000,108.400 275.820,108.400 275.600 C 108.400 275.380,108.128 275.200,107.795 275.200 C 107.462 275.200,106.877 275.041,106.495 274.847 C 106.113 274.652,105.260 274.248,104.600 273.948 C 96.703 270.357,85.933 261.895,81.247 255.600 C 80.673 254.830,80.100 254.110,79.972 254.000 C 77.458 251.835,70.824 238.887,69.161 232.900 C 66.763 224.265,66.626 223.215,66.613 213.400 C 66.604 207.119,66.767 203.502,67.128 202.000 C 67.418 200.790,67.925 198.662,68.254 197.271 C 69.462 192.164,70.351 189.766,73.328 183.600 C 77.606 174.737,85.690 164.943,92.800 160.010 C 93.570 159.476,94.290 158.931,94.400 158.800 C 96.983 155.720,113.015 148.742,120.212 147.566 C 124.965 146.789,133.311 146.080,135.200 146.292 C 136.190 146.403,138.620 146.642,140.600 146.824 M127.875 160.659 C 127.701 160.832,126.533 161.105,125.279 161.263 C 121.262 161.773,118.019 162.592,114.600 163.961 C 109.274 166.093,100.000 171.707,100.000 172.798 C 100.000 173.049,102.173 173.200,105.776 173.200 C 109.196 173.200,111.654 173.363,111.800 173.600 C 111.936 173.820,112.476 174.000,113.000 174.000 C 113.524 174.000,114.064 174.180,114.200 174.400 C 114.336 174.620,114.797 174.800,115.224 174.800 C 115.651 174.800,116.000 174.936,116.000 175.102 C 116.000 175.269,116.585 175.661,117.300 175.975 C 120.343 177.308,126.000 184.615,126.000 187.211 C 126.000 187.619,126.180 188.064,126.400 188.200 C 126.662 188.362,126.800 201.654,126.800 226.775 C 126.800 256.960,126.906 265.186,127.300 265.496 C 128.040 266.079,132.779 266.407,136.415 266.127 L 139.600 265.881 139.600 228.069 C 139.600 200.896,139.728 189.855,140.055 188.828 C 141.355 184.752,142.704 182.193,144.756 179.911 C 146.607 177.853,150.761 174.800,151.711 174.800 C 152.017 174.800,152.390 174.677,152.541 174.526 C 153.429 173.637,156.254 173.212,161.300 173.206 C 164.325 173.203,166.800 173.048,166.800 172.862 C 166.800 171.981,161.448 168.408,156.591 166.047 C 154.616 165.087,152.687 164.144,152.305 163.951 C 151.923 163.758,151.259 163.600,150.829 163.600 C 150.399 163.600,149.936 163.420,149.800 163.200 C 149.664 162.980,149.124 162.800,148.600 162.800 C 148.076 162.800,147.548 162.639,147.426 162.442 C 147.305 162.245,146.529 161.981,145.703 161.854 C 144.876 161.727,143.030 161.425,141.600 161.182 C 138.300 160.622,128.293 160.240,127.875 160.659 M70.954 280.044 C 82.329 283.112,88.945 293.136,86.669 303.853 C 81.565 327.878,46.833 324.707,46.662 300.200 C 46.569 286.923,58.808 276.768,70.954 280.044 " stroke="none" fill="#9c9c9c" fill-rule="evenodd"></path><path id="path1" d="M348.930 94.176 C 345.191 95.345,342.642 97.822,340.953 101.929 L 340.019 104.200 340.009 186.113 C 339.999 274.501,339.879 269.478,342.060 271.486 C 344.065 273.332,345.922 273.631,353.766 273.370 C 362.248 273.087,363.129 272.877,364.994 270.699 L 366.400 269.056 366.400 186.285 L 366.400 103.514 365.193 100.985 C 362.364 95.059,355.413 92.148,348.930 94.176 M65.077 293.477 C 63.389 293.748,60.529 296.688,60.191 298.500 C 58.980 304.987,66.630 309.370,71.196 304.804 C 76.063 299.937,71.975 292.368,65.077 293.477 M137.354 313.965 C 136.448 314.376,135.188 315.393,134.554 316.225 L 133.400 317.736 133.271 331.326 C 133.200 338.801,133.250 345.345,133.381 345.868 L 133.620 346.820 140.110 346.710 L 146.600 346.600 146.710 333.000 C 146.831 318.098,146.718 317.186,144.493 315.122 C 142.395 313.177,139.959 312.782,137.354 313.965 " stroke="none" fill="#cf2f49" fill-rule="evenodd"></path><path id="path2" d="M42.334 13.987 C 38.696 15.372,36.173 17.685,34.468 21.200 L 33.400 23.400 33.400 173.400 L 33.400 323.400 34.582 325.735 C 36.006 328.548,39.123 331.499,41.831 332.600 C 44.207 333.565,118.715 334.101,119.847 333.161 C 120.285 332.797,120.400 330.979,120.400 324.411 C 120.400 319.600,120.581 315.549,120.831 314.760 C 125.528 299.924,143.090 295.292,154.010 306.010 C 158.569 310.484,159.638 313.897,159.958 325.000 L 160.200 333.400 166.570 333.511 C 174.294 333.645,173.586 334.510,173.594 324.920 C 173.603 314.035,174.552 311.039,179.595 305.993 C 190.526 295.054,208.661 300.213,212.613 315.387 C 213.031 316.991,213.200 319.870,213.200 325.396 C 213.200 329.662,213.335 333.232,213.500 333.330 C 214.436 333.882,223.911 332.846,225.724 331.994 C 228.148 330.854,230.807 328.216,232.045 325.724 L 233.000 323.800 233.000 173.600 C 233.000 44.267,232.921 23.205,232.428 22.000 C 230.644 17.633,226.738 14.420,222.269 13.641 C 217.353 12.785,44.618 13.117,42.334 13.987 M215.783 14.546 C 216.855 15.619,218.067 17.862,219.098 20.680 C 220.086 23.383,220.202 322.560,219.216 325.600 C 217.909 329.628,215.767 332.761,214.300 332.787 C 213.655 332.799,213.600 332.144,213.600 324.528 C 213.600 319.426,213.425 315.710,213.143 314.828 C 207.641 297.635,186.339 294.165,176.374 308.839 C 175.508 310.113,174.800 311.425,174.800 311.754 C 174.800 312.084,174.641 312.451,174.448 312.570 C 173.706 313.029,173.462 315.285,173.235 323.800 L 173.000 332.600 166.700 332.710 L 160.400 332.820 160.400 324.434 C 160.400 319.274,160.246 315.952,160.000 315.800 C 159.780 315.664,159.600 315.129,159.600 314.611 C 159.600 313.673,157.560 309.324,156.406 307.800 C 146.631 294.896,126.275 297.981,120.773 313.200 C 119.935 315.517,119.809 316.714,119.616 324.200 L 119.400 332.600 81.200 332.600 L 43.000 332.600 40.977 331.532 C 38.486 330.218,36.414 328.130,35.155 325.668 L 34.200 323.800 34.200 173.400 L 34.200 23.000 35.070 21.200 C 36.721 17.784,40.182 15.091,44.200 14.097 C 45.227 13.843,76.076 13.683,130.318 13.651 L 214.836 13.600 215.783 14.546 M69.000 26.800 C 68.864 27.020,68.311 27.200,67.771 27.200 C 67.231 27.200,66.477 27.357,66.095 27.550 C 62.993 29.111,61.717 29.849,60.876 30.568 C 56.768 34.078,54.635 37.394,53.374 42.234 C 52.521 45.512,52.521 114.488,53.374 117.766 C 55.015 124.065,59.450 129.536,64.800 131.859 C 69.886 134.067,67.728 134.000,133.400 134.000 C 200.218 134.000,197.224 134.106,202.600 131.551 C 204.466 130.664,210.400 125.425,210.400 124.665 C 210.400 124.477,210.736 123.846,211.146 123.262 C 213.684 119.650,213.600 121.132,213.600 79.697 C 213.600 55.029,213.462 41.962,213.200 41.800 C 212.980 41.664,212.800 41.201,212.800 40.771 C 212.800 39.994,212.659 39.626,211.536 37.483 C 209.001 32.642,202.357 27.200,198.983 27.200 C 198.468 27.200,197.936 27.020,197.800 26.800 C 197.458 26.246,69.342 26.246,69.000 26.800 M197.280 27.239 C 204.724 28.780,211.012 34.968,212.762 42.477 C 213.375 45.104,213.374 114.904,212.761 117.523 C 211.185 124.261,206.419 129.684,200.000 132.044 L 197.400 133.000 133.200 133.000 L 69.000 133.000 66.600 132.029 C 61.346 129.905,57.431 126.282,55.330 121.600 C 53.762 118.108,53.800 119.134,53.800 80.000 C 53.800 40.870,53.762 41.900,55.328 38.400 C 57.687 33.127,62.918 28.823,68.654 27.435 C 71.702 26.697,193.764 26.511,197.280 27.239 M66.591 80.000 C 66.591 98.370,66.640 105.885,66.700 96.700 C 66.760 87.515,66.760 72.485,66.700 63.300 C 66.640 54.115,66.591 61.630,66.591 80.000 M171.225 55.431 C 171.981 56.328,172.681 56.997,172.780 56.917 C 172.879 56.838,172.260 56.104,171.405 55.287 L 169.850 53.800 171.225 55.431 M173.293 60.000 C 173.293 60.770,173.375 61.085,173.476 60.700 C 173.576 60.315,173.576 59.685,173.476 59.300 C 173.375 58.915,173.293 59.230,173.293 60.000 M160.169 66.937 C 159.470 68.759,160.206 73.400,161.200 73.439 C 162.070 73.472,162.083 73.456,161.300 73.312 C 160.457 73.157,160.400 72.948,160.400 69.988 L 160.400 66.829 164.300 66.698 L 168.200 66.567 164.287 66.484 C 161.321 66.420,160.325 66.530,160.169 66.937 M93.380 87.600 C 93.380 95.190,93.434 98.295,93.499 94.500 C 93.565 90.705,93.565 84.495,93.499 80.700 C 93.434 76.905,93.380 80.010,93.380 87.600 M173.357 90.000 C 173.357 92.970,173.420 94.185,173.497 92.700 C 173.574 91.215,173.574 88.785,173.497 87.300 C 173.420 85.815,173.357 87.030,173.357 90.000 M126.100 93.476 C 126.485 93.576,127.115 93.576,127.500 93.476 C 127.885 93.375,127.570 93.293,126.800 93.293 C 126.030 93.293,125.715 93.375,126.100 93.476 M154.112 93.495 C 155.164 93.577,156.784 93.576,157.712 93.492 C 158.640 93.408,157.780 93.341,155.800 93.342 C 153.820 93.343,153.060 93.412,154.112 93.495 M282.143 94.382 C 279.132 95.100,276.192 97.848,274.440 101.582 L 273.400 103.800 273.400 186.200 L 273.400 268.600 274.391 270.000 C 276.720 273.289,277.199 273.396,287.489 272.916 C 296.862 272.479,297.694 272.170,299.070 268.614 C 299.827 266.655,299.789 106.544,299.030 103.694 C 297.842 99.230,293.836 94.800,290.988 94.800 C 290.665 94.800,290.400 94.620,290.400 94.400 C 290.400 93.937,284.068 93.923,282.143 94.382 M133.293 100.000 C 133.293 100.770,133.375 101.085,133.476 100.700 C 133.576 100.315,133.576 99.685,133.476 99.300 C 133.375 98.915,133.293 99.230,133.293 100.000 M99.300 106.676 C 99.685 106.776,100.315 106.776,100.700 106.676 C 101.085 106.575,100.770 106.493,100.000 106.493 C 99.230 106.493,98.915 106.575,99.300 106.676 M125.905 106.683 C 126.402 106.779,127.122 106.775,127.505 106.675 C 127.887 106.575,127.480 106.496,126.600 106.501 C 125.720 106.505,125.407 106.587,125.905 106.683 M128.200 146.607 C 120.549 147.348,117.933 147.851,112.776 149.576 C 106.087 151.812,96.023 156.864,94.400 158.800 C 94.290 158.931,93.570 159.476,92.800 160.010 C 85.690 164.943,77.606 174.737,73.328 183.600 C 70.351 189.766,69.462 192.164,68.254 197.271 C 67.925 198.662,67.418 200.790,67.128 202.000 C 66.767 203.502,66.604 207.119,66.613 213.400 C 66.626 223.215,66.763 224.265,69.161 232.900 C 70.824 238.887,77.458 251.835,79.972 254.000 C 80.100 254.110,80.673 254.830,81.247 255.600 C 85.933 261.895,96.703 270.357,104.600 273.948 C 105.260 274.248,106.113 274.652,106.495 274.847 C 106.877 275.041,107.462 275.200,107.795 275.200 C 108.128 275.200,108.400 275.380,108.400 275.600 C 108.400 275.820,108.814 276.000,109.320 276.000 C 109.826 276.000,110.411 276.149,110.620 276.330 C 110.829 276.512,111.810 276.893,112.800 277.176 C 113.790 277.459,114.960 277.837,115.400 278.015 C 117.862 279.013,132.916 280.983,134.742 280.546 C 135.104 280.459,137.290 280.212,139.600 279.998 C 146.086 279.395,147.768 279.153,148.180 278.761 C 148.389 278.563,148.916 278.400,149.352 278.400 C 150.204 278.400,152.567 277.720,153.695 277.151 C 154.077 276.958,154.664 276.800,155.000 276.800 C 155.336 276.800,155.923 276.641,156.305 276.447 C 156.687 276.252,157.450 275.914,158.000 275.694 C 163.083 273.663,171.671 268.738,175.068 265.904 C 181.734 260.344,190.800 249.833,190.800 247.665 C 190.800 247.446,190.942 247.207,191.116 247.133 C 191.769 246.858,195.932 237.889,197.120 234.200 C 200.822 222.701,201.420 210.407,198.843 198.800 C 198.623 197.810,198.330 196.460,198.191 195.800 C 198.053 195.140,197.791 194.240,197.610 193.800 C 197.429 193.360,197.064 192.370,196.800 191.600 C 196.218 189.907,195.629 188.440,195.153 187.505 C 194.959 187.123,194.800 186.538,194.800 186.205 C 194.800 185.872,194.620 185.600,194.400 185.600 C 194.180 185.600,194.000 185.335,194.000 185.012 C 194.000 184.689,193.640 183.789,193.200 183.012 C 190.447 178.153,189.069 175.829,188.804 175.600 C 188.677 175.490,187.745 174.230,186.734 172.800 C 185.722 171.370,183.388 168.666,181.547 166.792 C 178.285 163.470,177.153 162.457,174.408 160.400 C 173.674 159.850,172.845 159.175,172.565 158.900 C 172.286 158.625,171.864 158.400,171.629 158.400 C 171.393 158.400,171.200 158.220,171.200 158.000 C 171.200 157.780,170.930 157.600,170.600 157.600 C 170.270 157.600,170.000 157.420,170.000 157.200 C 170.000 156.980,169.745 156.800,169.433 156.800 C 169.122 156.800,168.807 156.665,168.733 156.500 C 167.510 153.749,148.999 147.354,141.200 146.989 L 138.200 146.849 140.600 147.197 C 166.545 150.962,186.768 166.450,195.182 189.000 C 195.675 190.320,196.236 191.760,196.430 192.200 C 197.302 194.184,198.531 199.861,199.597 206.833 C 201.377 218.467,197.505 235.742,190.509 247.374 C 161.234 296.054,87.037 287.809,70.158 234.000 C 69.848 233.010,69.424 231.660,69.216 231.000 C 67.172 224.496,66.232 208.994,67.531 203.200 C 67.802 201.990,68.222 200.010,68.465 198.800 C 71.369 184.319,81.498 168.850,94.070 159.697 C 98.562 156.428,107.400 151.600,108.893 151.600 C 109.194 151.600,109.611 151.443,109.820 151.250 C 110.272 150.835,114.324 149.550,118.110 148.622 C 122.335 147.586,128.980 146.816,133.767 146.808 C 136.168 146.804,138.058 146.733,137.967 146.650 C 137.453 146.188,132.735 146.168,128.200 146.607 M125.800 160.433 C 115.602 162.187,106.969 165.975,100.119 171.700 C 97.910 173.546,98.029 173.600,104.324 173.600 C 115.653 173.600,122.409 178.016,125.570 187.487 C 126.386 189.934,126.400 190.593,126.406 227.687 C 126.409 248.429,126.553 265.621,126.724 265.891 C 127.146 266.555,133.089 266.979,136.930 266.619 L 140.000 266.332 140.014 229.066 C 140.026 199.083,140.135 191.370,140.571 189.600 C 143.241 178.773,150.297 173.600,162.396 173.600 C 165.232 173.600,167.653 173.438,167.775 173.240 C 168.172 172.599,162.669 168.369,159.400 166.804 C 158.740 166.487,157.750 165.938,157.200 165.583 C 156.650 165.227,155.120 164.528,153.800 164.029 C 152.480 163.530,151.040 162.975,150.600 162.794 C 150.160 162.614,149.350 162.350,148.800 162.206 C 148.250 162.063,147.170 161.774,146.400 161.565 C 141.129 160.129,130.850 159.565,125.800 160.433 M141.600 161.182 C 143.030 161.425,144.876 161.727,145.703 161.854 C 146.529 161.981,147.305 162.245,147.426 162.442 C 147.548 162.639,148.076 162.800,148.600 162.800 C 149.124 162.800,149.664 162.980,149.800 163.200 C 149.936 163.420,150.399 163.600,150.829 163.600 C 151.259 163.600,151.923 163.758,152.305 163.951 C 152.687 164.144,154.616 165.087,156.591 166.047 C 161.448 168.408,166.800 171.981,166.800 172.862 C 166.800 173.048,164.325 173.203,161.300 173.206 C 156.254 173.212,153.429 173.637,152.541 174.526 C 152.390 174.677,152.017 174.800,151.711 174.800 C 150.761 174.800,146.607 177.853,144.756 179.911 C 142.704 182.193,141.355 184.752,140.055 188.828 C 139.728 189.855,139.600 200.896,139.600 228.069 L 139.600 265.881 136.415 266.127 C 132.779 266.407,128.040 266.079,127.300 265.496 C 126.906 265.186,126.800 256.960,126.800 226.775 C 126.800 201.654,126.662 188.362,126.400 188.200 C 126.180 188.064,126.000 187.619,126.000 187.211 C 126.000 184.615,120.343 177.308,117.300 175.975 C 116.585 175.661,116.000 175.269,116.000 175.102 C 116.000 174.936,115.651 174.800,115.224 174.800 C 114.797 174.800,114.336 174.620,114.200 174.400 C 114.064 174.180,113.524 174.000,113.000 174.000 C 112.476 174.000,111.936 173.820,111.800 173.600 C 111.654 173.363,109.196 173.200,105.776 173.200 C 102.173 173.200,100.000 173.049,100.000 172.798 C 100.000 171.707,109.274 166.093,114.600 163.961 C 118.019 162.592,121.262 161.773,125.279 161.263 C 126.533 161.105,127.701 160.832,127.875 160.659 C 128.293 160.240,138.300 160.622,141.600 161.182 M86.720 187.700 C 73.165 209.044,80.963 241.974,103.166 257.150 C 106.486 259.419,111.950 262.400,112.790 262.400 C 113.067 262.400,113.200 250.863,113.200 226.859 L 113.200 191.318 112.290 189.969 C 110.188 186.848,109.970 186.800,97.987 186.800 C 87.332 186.800,87.290 186.803,86.720 187.700 M157.000 187.548 C 155.340 188.579,154.193 189.955,153.655 191.560 C 152.869 193.906,153.020 262.400,153.811 262.400 C 154.662 262.400,158.857 260.247,162.200 258.096 C 185.011 243.415,193.214 213.849,181.114 189.926 L 179.533 186.800 168.867 186.801 C 159.159 186.803,158.092 186.870,157.000 187.548 M61.870 280.226 C 44.761 284.895,40.733 306.975,55.200 316.787 C 72.508 328.525,93.890 309.949,84.979 290.916 C 83.095 286.893,76.193 280.669,74.310 281.297 C 74.045 281.385,74.812 281.944,76.014 282.540 C 87.759 288.357,90.053 304.874,80.414 314.226 C 67.952 326.318,46.859 317.300,46.806 299.858 C 46.768 287.499,59.982 277.333,71.597 280.785 C 73.232 281.271,73.847 281.314,73.447 280.914 C 72.237 279.704,65.296 279.291,61.870 280.226 M191.400 313.681 C 190.740 313.912,189.689 314.572,189.064 315.150 C 186.788 317.255,186.800 317.160,186.800 332.580 L 186.800 346.800 193.400 346.800 L 200.000 346.800 200.000 332.849 C 200.000 317.893,199.916 317.180,197.929 315.319 C 195.987 313.499,193.623 312.906,191.400 313.681 " stroke="none" fill="#687882" fill-rule="evenodd"></path><path id="path3" d="M71.247 40.550 C 66.619 42.224,66.765 40.865,66.891 80.904 L 67.000 115.459 67.972 116.877 C 70.159 120.069,64.112 119.800,133.632 119.800 L 195.526 119.800 197.063 118.564 C 200.159 116.075,199.959 118.702,199.981 80.149 C 200.002 42.622,200.090 44.131,197.733 41.954 C 197.110 41.379,195.988 40.704,195.240 40.454 C 193.209 39.776,73.132 39.869,71.247 40.550 M102.904 54.001 C 103.837 54.442,105.050 55.463,105.600 56.271 L 106.600 57.740 106.722 78.570 C 106.862 102.384,106.869 102.279,104.928 104.427 C 102.224 107.420,98.283 107.504,95.410 104.631 C 93.193 102.414,93.200 102.472,93.200 86.950 C 93.200 78.221,93.060 73.600,92.796 73.600 C 89.897 73.600,86.792 70.022,86.814 66.708 C 86.833 63.941,87.126 63.481,92.030 58.531 C 97.493 53.016,99.261 52.280,102.904 54.001 M169.251 53.767 C 173.877 55.712,174.887 61.751,171.125 64.971 C 169.291 66.541,168.247 66.800,163.750 66.800 L 160.400 66.800 160.400 69.949 L 160.400 73.098 162.083 73.367 C 175.786 75.558,178.467 99.428,165.693 105.509 C 159.978 108.229,149.304 106.881,147.400 103.199 C 144.679 97.938,148.111 93.622,155.319 93.238 L 159.800 93.000 159.917 89.900 L 160.034 86.800 158.911 86.800 C 154.844 86.800,147.600 81.310,147.600 78.228 C 147.600 77.909,147.420 77.536,147.200 77.400 C 146.602 77.031,146.687 64.354,147.300 62.372 C 148.369 58.916,152.069 55.208,155.672 53.981 C 158.432 53.041,167.196 52.903,169.251 53.767 M130.707 94.655 C 134.316 97.407,134.334 102.604,130.744 105.303 C 123.956 110.404,116.044 100.844,122.256 95.047 C 124.519 92.935,128.227 92.763,130.707 94.655 " stroke="none" fill="#04abf3" fill-rule="evenodd"></path><path id="path4" d="M38.500 0.287 C 37.785 0.377,37.200 0.619,37.200 0.825 C 37.200 1.031,36.857 1.200,36.438 1.200 C 35.531 1.200,32.400 2.808,32.400 3.274 C 32.400 3.453,32.080 3.600,31.688 3.600 C 31.297 3.600,30.717 3.960,30.400 4.400 C 30.083 4.840,29.615 5.200,29.360 5.200 C 28.695 5.200,24.000 10.459,24.000 11.205 C 24.000 11.422,23.820 11.600,23.600 11.600 C 23.380 11.600,23.200 11.870,23.200 12.200 C 23.200 12.530,23.020 12.800,22.800 12.800 C 22.580 12.800,22.400 13.160,22.400 13.600 C 22.400 14.040,22.220 14.400,22.000 14.400 C 21.780 14.400,21.600 14.760,21.600 15.200 C 21.600 15.640,21.420 16.000,21.200 16.000 C 20.980 16.000,20.800 16.540,20.800 17.200 C 20.800 17.860,20.620 18.400,20.400 18.400 C 20.180 18.400,20.000 19.300,20.000 20.400 C 20.000 21.500,19.820 22.400,19.600 22.400 C 19.334 22.400,19.200 73.000,19.200 173.400 C 19.200 273.800,19.334 324.400,19.600 324.400 C 19.820 324.400,20.000 325.122,20.000 326.005 C 20.000 326.888,20.180 327.968,20.400 328.405 C 20.620 328.842,20.980 329.558,21.200 329.995 C 21.420 330.432,21.600 331.152,21.600 331.595 C 21.600 332.038,21.780 332.400,22.000 332.400 C 22.220 332.400,22.400 332.720,22.400 333.112 C 22.400 333.503,22.760 334.083,23.200 334.400 C 23.640 334.717,24.000 335.212,24.000 335.499 C 24.000 336.525,29.792 342.400,30.803 342.400 C 31.021 342.400,31.200 342.580,31.200 342.800 C 31.200 343.020,31.470 343.200,31.800 343.200 C 32.130 343.200,32.400 343.380,32.400 343.600 C 32.400 343.820,32.760 344.000,33.200 344.000 C 33.640 344.000,34.000 344.180,34.000 344.400 C 34.000 344.620,34.360 344.800,34.800 344.800 C 35.240 344.800,35.600 344.980,35.600 345.200 C 35.600 345.420,36.140 345.600,36.800 345.600 C 37.460 345.600,38.000 345.780,38.000 346.000 C 38.000 346.220,38.529 346.400,39.176 346.400 C 39.823 346.400,40.464 346.580,40.600 346.800 C 40.762 347.062,54.337 347.200,80.024 347.200 L 119.200 347.200 119.200 348.576 C 119.200 349.333,119.380 350.064,119.600 350.200 C 119.820 350.336,120.000 350.977,120.000 351.624 C 120.000 352.271,120.180 352.800,120.400 352.800 C 120.620 352.800,120.800 353.078,120.800 353.418 C 120.800 353.758,121.205 354.456,121.700 354.968 C 122.195 355.480,122.895 356.237,123.255 356.650 C 124.219 357.756,125.689 358.800,126.281 358.800 C 126.567 358.800,126.800 358.980,126.800 359.200 C 126.800 359.420,127.149 359.600,127.576 359.600 C 128.003 359.600,128.464 359.780,128.600 360.000 C 128.736 360.220,129.647 360.400,130.624 360.400 L 132.400 360.400 132.400 362.576 C 132.400 363.773,132.580 364.864,132.800 365.000 C 133.020 365.136,133.200 366.126,133.200 367.200 C 133.200 368.274,133.380 369.264,133.600 369.400 C 133.820 369.536,134.000 370.267,134.000 371.024 C 134.000 371.781,134.180 372.400,134.400 372.400 C 134.620 372.400,134.800 372.839,134.800 373.376 C 134.800 373.913,134.980 374.464,135.200 374.600 C 135.420 374.736,135.600 375.287,135.600 375.824 C 135.600 376.361,135.780 376.800,136.000 376.800 C 136.220 376.800,136.400 377.160,136.400 377.600 C 136.400 378.040,136.580 378.400,136.800 378.400 C 137.020 378.400,137.200 378.720,137.200 379.112 C 137.200 379.503,137.560 380.083,138.000 380.400 C 138.440 380.717,138.800 381.297,138.800 381.688 C 138.800 382.080,138.980 382.400,139.200 382.400 C 139.420 382.400,139.600 382.631,139.600 382.914 C 139.600 383.585,141.565 385.922,144.800 389.098 C 148.351 392.584,149.086 393.200,149.697 393.200 C 149.987 393.200,150.483 393.560,150.800 394.000 C 151.117 394.440,151.697 394.800,152.088 394.800 C 152.480 394.800,152.800 394.980,152.800 395.200 C 152.800 395.420,153.160 395.600,153.600 395.600 C 154.040 395.600,154.400 395.780,154.400 396.000 C 154.400 396.220,154.760 396.400,155.200 396.400 C 155.640 396.400,156.000 396.580,156.000 396.800 C 156.000 397.020,156.360 397.200,156.800 397.200 C 157.240 397.200,157.600 397.380,157.600 397.600 C 157.600 397.820,157.949 398.000,158.376 398.000 C 158.803 398.000,159.264 398.180,159.400 398.400 C 159.536 398.620,160.162 398.800,160.790 398.800 C 161.419 398.800,162.008 399.025,162.100 399.300 C 162.345 400.035,331.255 400.035,331.500 399.300 C 331.592 399.025,332.192 398.800,332.833 398.800 C 333.475 398.800,334.000 398.620,334.000 398.400 C 334.000 398.180,334.540 398.000,335.200 398.000 C 335.860 398.000,336.400 397.820,336.400 397.600 C 336.400 397.380,336.760 397.200,337.200 397.200 C 337.640 397.200,338.000 397.020,338.000 396.800 C 338.000 396.580,338.360 396.400,338.800 396.400 C 339.240 396.400,339.600 396.220,339.600 396.000 C 339.600 395.780,339.830 395.600,340.112 395.600 C 340.393 395.600,340.883 395.240,341.200 394.800 C 341.517 394.360,342.057 394.000,342.400 394.000 C 342.743 394.000,343.283 393.640,343.600 393.200 C 343.917 392.760,344.406 392.400,344.685 392.400 C 345.504 392.400,352.000 386.434,352.000 385.681 C 352.000 385.482,352.540 384.754,353.200 384.063 C 353.860 383.372,354.400 382.551,354.400 382.237 C 354.400 381.923,354.558 381.607,354.750 381.533 C 355.211 381.358,357.600 376.589,357.600 375.845 C 357.600 375.527,357.783 375.206,358.007 375.131 C 358.231 375.056,358.526 374.051,358.663 372.898 C 358.800 371.744,359.066 370.800,359.256 370.800 C 359.445 370.800,359.600 370.080,359.600 369.200 C 359.600 368.320,359.780 367.600,360.000 367.600 C 360.264 367.600,360.400 353.933,360.400 327.400 L 360.400 287.200 362.976 287.200 C 364.393 287.200,365.664 287.020,365.800 286.800 C 365.936 286.580,366.476 286.400,367.000 286.400 C 367.524 286.400,368.064 286.220,368.200 286.000 C 368.336 285.780,368.797 285.600,369.224 285.600 C 369.651 285.600,370.000 285.420,370.000 285.200 C 370.000 284.980,370.225 284.800,370.500 284.800 C 370.775 284.799,371.540 284.344,372.200 283.788 C 372.860 283.231,373.981 282.287,374.691 281.688 C 375.402 281.090,375.987 280.325,375.991 279.988 C 375.996 279.652,376.360 279.117,376.800 278.800 C 377.240 278.483,377.600 277.918,377.600 277.545 C 377.600 277.172,377.735 276.807,377.900 276.733 C 378.507 276.463,380.000 273.089,380.000 271.986 C 380.000 271.360,380.180 270.736,380.400 270.600 C 380.665 270.436,380.800 241.937,380.800 186.400 C 380.800 130.863,380.665 102.364,380.400 102.200 C 380.180 102.064,380.000 101.243,380.000 100.376 C 380.000 99.509,379.820 98.800,379.600 98.800 C 379.380 98.800,379.200 98.260,379.200 97.600 C 379.200 96.940,379.020 96.400,378.800 96.400 C 378.580 96.400,378.400 96.166,378.400 95.880 C 378.400 95.144,377.459 93.207,377.100 93.203 C 376.935 93.201,376.800 92.930,376.800 92.600 C 376.800 92.270,376.620 92.000,376.400 92.000 C 376.180 92.000,376.000 91.722,376.000 91.383 C 376.000 90.666,375.769 90.369,372.722 87.183 C 371.469 85.872,370.254 84.800,370.022 84.800 C 369.790 84.800,369.600 84.620,369.600 84.400 C 369.600 84.180,369.345 84.000,369.033 84.000 C 368.722 84.000,368.407 83.865,368.333 83.700 C 368.122 83.225,364.959 81.600,364.246 81.600 C 363.890 81.600,363.600 81.420,363.600 81.200 C 363.600 80.980,363.137 80.800,362.571 80.800 C 360.281 80.800,360.400 82.939,360.400 41.629 C 360.400 16.543,360.264 3.600,360.000 3.600 C 359.780 3.600,359.600 3.304,359.600 2.943 C 359.600 2.582,359.045 1.756,358.367 1.108 C 356.095 -1.063,347.200 -0.122,347.200 2.289 C 347.200 2.570,347.020 2.800,346.800 2.800 C 346.580 2.800,346.400 3.149,346.400 3.576 C 346.400 4.003,346.220 4.464,346.000 4.600 C 345.738 4.762,345.600 17.777,345.600 42.344 C 345.600 82.120,345.665 80.800,343.720 80.800 C 343.214 80.800,342.800 80.980,342.800 81.200 C 342.800 81.420,342.440 81.600,342.000 81.600 C 341.560 81.600,341.200 81.780,341.200 82.000 C 341.200 82.220,340.840 82.400,340.400 82.400 C 339.960 82.400,339.600 82.580,339.600 82.800 C 339.600 83.020,339.357 83.200,339.059 83.200 C 338.762 83.200,337.954 83.740,337.263 84.400 C 336.572 85.060,335.861 85.600,335.682 85.600 C 335.203 85.600,332.400 88.243,332.400 88.695 C 332.400 88.907,331.889 89.616,331.265 90.269 C 330.641 90.921,329.878 92.028,329.568 92.728 C 329.258 93.428,328.869 94.000,328.702 94.000 C 328.536 94.000,328.400 94.360,328.400 94.800 C 328.400 95.240,328.264 95.600,328.097 95.600 C 327.735 95.600,326.800 98.462,326.800 99.570 C 326.800 100.001,326.620 100.464,326.400 100.600 C 326.135 100.764,326.000 129.796,326.000 186.400 C 326.000 243.004,326.135 272.036,326.400 272.200 C 326.620 272.336,326.800 272.761,326.800 273.144 C 326.800 274.019,327.699 275.993,328.100 275.997 C 328.265 275.999,328.400 276.360,328.400 276.800 C 328.400 277.240,328.580 277.600,328.800 277.600 C 329.020 277.600,329.200 277.849,329.200 278.154 C 329.200 278.930,334.203 284.000,334.969 284.000 C 335.316 284.000,335.601 284.135,335.603 284.300 C 335.607 284.659,337.544 285.600,338.280 285.600 C 338.566 285.600,338.800 285.780,338.800 286.000 C 338.800 286.220,339.340 286.400,340.000 286.400 C 340.660 286.400,341.200 286.580,341.200 286.800 C 341.200 287.020,342.190 287.200,343.400 287.200 L 345.600 287.200 345.600 326.200 C 345.600 351.933,345.464 365.200,345.200 365.200 C 344.980 365.200,344.800 365.729,344.800 366.376 C 344.800 367.023,344.620 367.664,344.400 367.800 C 344.180 367.936,344.000 368.487,344.000 369.024 C 344.000 369.561,343.820 370.000,343.600 370.000 C 343.380 370.000,343.200 370.210,343.200 370.466 C 343.200 371.212,341.877 374.000,341.523 374.000 C 341.345 374.000,341.200 374.205,341.200 374.456 C 341.200 375.087,334.967 381.093,333.991 381.403 C 333.556 381.541,333.200 381.822,333.200 382.027 C 333.200 382.232,332.840 382.400,332.400 382.400 C 331.960 382.400,331.600 382.580,331.600 382.800 C 331.600 383.020,331.240 383.200,330.800 383.200 C 330.360 383.200,330.000 383.380,330.000 383.600 C 330.000 383.820,329.640 384.000,329.200 384.000 C 328.760 384.000,328.400 384.180,328.400 384.400 C 328.400 384.620,327.770 384.800,327.000 384.800 C 326.230 384.800,325.600 384.980,325.600 385.200 C 325.600 385.461,318.667 385.600,305.600 385.600 C 294.600 385.600,285.600 385.502,285.600 385.383 C 285.600 385.264,285.960 384.780,286.400 384.308 C 286.840 383.836,287.200 383.213,287.200 382.925 C 287.200 382.636,287.352 382.400,287.537 382.400 C 287.723 382.400,288.305 381.545,288.832 380.500 C 289.358 379.455,289.882 378.510,289.995 378.400 C 290.386 378.019,291.301 375.394,291.494 374.100 C 291.600 373.385,291.848 372.800,292.044 372.800 C 292.240 372.800,292.400 372.170,292.400 371.400 C 292.400 370.630,292.580 370.000,292.800 370.000 C 293.020 370.000,293.200 369.021,293.200 367.824 C 293.200 366.627,293.380 365.536,293.600 365.400 C 293.862 365.238,294.000 351.729,294.000 326.176 L 294.000 287.200 296.376 287.200 C 297.683 287.200,298.864 287.020,299.000 286.800 C 299.136 286.580,299.676 286.400,300.200 286.400 C 300.724 286.400,301.264 286.220,301.400 286.000 C 301.536 285.780,301.963 285.600,302.348 285.600 C 302.734 285.600,303.436 285.240,303.908 284.800 C 304.380 284.360,304.932 284.000,305.135 284.000 C 305.823 284.000,309.893 279.591,310.768 277.898 C 311.080 277.294,311.485 276.800,311.668 276.800 C 311.850 276.800,312.000 276.440,312.000 276.000 C 312.000 275.560,312.180 275.200,312.400 275.200 C 312.620 275.200,312.800 274.761,312.800 274.224 C 312.800 273.687,312.980 273.136,313.200 273.000 C 313.420 272.864,313.600 271.784,313.600 270.600 C 313.600 269.416,313.780 268.336,314.000 268.200 C 314.554 267.857,314.554 105.200,314.000 105.200 C 313.771 105.200,313.600 104.000,313.600 102.400 C 313.600 100.800,313.429 99.600,313.200 99.600 C 312.980 99.600,312.800 99.060,312.800 98.400 C 312.800 97.740,312.620 97.200,312.400 97.200 C 312.180 97.200,312.000 96.857,312.000 96.438 C 312.000 95.512,310.444 92.429,309.559 91.600 C 309.207 91.270,308.627 90.435,308.272 89.744 C 307.504 88.253,304.141 84.800,303.457 84.800 C 303.193 84.800,302.717 84.440,302.400 84.000 C 302.083 83.560,301.503 83.200,301.112 83.200 C 300.720 83.200,300.400 83.020,300.400 82.800 C 300.400 82.580,300.040 82.400,299.600 82.400 C 299.160 82.400,298.800 82.220,298.800 82.000 C 298.800 81.780,298.440 81.600,298.000 81.600 C 297.560 81.600,297.200 81.420,297.200 81.200 C 297.200 80.980,296.737 80.800,296.171 80.800 C 293.882 80.800,294.000 82.903,294.000 42.029 C 294.000 17.210,293.864 4.400,293.600 4.400 C 293.380 4.400,293.200 3.942,293.200 3.382 C 293.200 2.808,292.727 1.891,292.117 1.282 C 289.602 -1.232,280.000 0.115,280.000 2.982 C 280.000 3.322,279.820 3.600,279.600 3.600 C 279.336 3.600,279.200 16.543,279.200 41.629 C 279.200 81.747,279.241 80.800,277.508 80.800 C 276.750 80.800,274.807 81.734,274.803 82.100 C 274.801 82.265,274.440 82.400,274.000 82.400 C 273.560 82.400,273.200 82.580,273.200 82.800 C 273.200 83.020,272.880 83.200,272.488 83.200 C 272.097 83.200,271.517 83.560,271.200 84.000 C 270.883 84.440,270.390 84.800,270.104 84.800 C 269.463 84.800,264.400 89.811,264.400 90.446 C 264.400 90.699,264.075 91.197,263.678 91.553 C 262.769 92.367,260.400 97.280,260.400 98.351 C 260.400 98.792,260.242 99.251,260.049 99.370 C 259.176 99.909,259.068 109.433,259.059 186.600 C 259.050 263.365,259.155 272.478,260.052 273.032 C 260.243 273.150,260.400 273.687,260.400 274.224 C 260.400 274.761,260.580 275.200,260.800 275.200 C 261.020 275.200,261.200 275.560,261.200 276.000 C 261.200 276.440,261.380 276.800,261.600 276.800 C 261.820 276.800,262.000 277.073,262.000 277.406 C 262.000 277.739,263.527 279.539,265.394 281.406 C 267.261 283.273,269.061 284.800,269.394 284.800 C 269.727 284.800,270.000 284.980,270.000 285.200 C 270.000 285.420,270.349 285.600,270.776 285.600 C 271.203 285.600,271.664 285.780,271.800 286.000 C 271.936 286.220,272.476 286.400,273.000 286.400 C 273.524 286.400,274.064 286.580,274.200 286.800 C 274.336 287.020,275.517 287.200,276.824 287.200 L 279.200 287.200 279.200 325.176 C 279.200 350.063,279.062 363.238,278.800 363.400 C 278.580 363.536,278.400 364.346,278.400 365.200 C 278.400 366.054,278.220 366.864,278.000 367.000 C 277.780 367.136,277.600 367.552,277.600 367.924 C 277.600 368.813,274.751 374.800,274.328 374.800 C 274.148 374.800,274.000 374.990,274.000 375.222 C 274.000 375.704,269.320 380.400,268.840 380.400 C 268.666 380.400,268.001 380.850,267.362 381.400 C 266.723 381.949,265.975 382.399,265.700 382.400 C 265.425 382.400,265.200 382.580,265.200 382.800 C 265.200 383.020,264.840 383.200,264.400 383.200 C 263.960 383.200,263.600 383.380,263.600 383.600 C 263.600 383.820,263.161 384.000,262.624 384.000 C 262.087 384.000,261.536 384.180,261.400 384.400 C 261.264 384.620,260.713 384.800,260.176 384.800 C 259.639 384.800,259.200 384.980,259.200 385.200 C 259.200 385.461,252.600 385.600,240.200 385.600 C 227.800 385.600,221.200 385.461,221.200 385.200 C 221.200 384.980,220.570 384.800,219.800 384.800 C 219.030 384.800,218.400 384.620,218.400 384.400 C 218.400 384.180,218.147 384.000,217.838 384.000 C 217.172 384.000,213.859 382.332,213.667 381.900 C 213.593 381.735,213.273 381.600,212.955 381.600 C 212.438 381.600,211.565 380.898,208.682 378.163 C 206.848 376.423,205.200 374.352,205.200 373.787 C 205.200 373.464,205.052 373.200,204.871 373.200 C 204.510 373.200,202.800 369.627,202.800 368.872 C 202.800 368.612,202.620 368.400,202.400 368.400 C 202.180 368.400,202.000 367.871,202.000 367.224 C 202.000 366.577,201.820 365.936,201.600 365.800 C 201.380 365.664,201.200 364.393,201.200 362.976 L 201.200 360.400 202.605 360.400 C 203.378 360.400,204.323 360.235,204.705 360.034 C 205.087 359.832,206.100 359.362,206.956 358.988 C 208.737 358.211,212.000 355.120,212.000 354.211 C 212.000 353.875,212.180 353.600,212.400 353.600 C 212.620 353.600,212.800 353.240,212.800 352.800 C 212.800 352.360,212.980 352.000,213.200 352.000 C 213.420 352.000,213.600 351.177,213.600 350.171 C 213.600 347.329,213.893 347.200,220.371 347.200 C 223.857 347.200,226.000 347.048,226.000 346.800 C 226.000 346.580,226.619 346.400,227.376 346.400 C 228.133 346.400,228.864 346.220,229.000 346.000 C 229.136 345.780,229.597 345.600,230.024 345.600 C 230.451 345.600,230.800 345.420,230.800 345.200 C 230.800 344.980,231.160 344.800,231.600 344.800 C 232.040 344.800,232.400 344.620,232.400 344.400 C 232.400 344.180,232.760 344.000,233.200 344.000 C 233.640 344.000,234.000 343.820,234.000 343.600 C 234.000 343.380,234.320 343.200,234.712 343.200 C 235.103 343.200,235.683 342.840,236.000 342.400 C 236.317 341.960,236.815 341.600,237.107 341.600 C 237.798 341.600,241.600 337.798,241.600 337.107 C 241.600 336.815,241.960 336.317,242.400 336.000 C 242.840 335.683,243.200 335.103,243.200 334.712 C 243.200 334.320,243.380 334.000,243.600 334.000 C 243.820 334.000,244.000 333.640,244.000 333.200 C 244.000 332.760,244.180 332.400,244.400 332.400 C 244.620 332.400,244.800 332.040,244.800 331.600 C 244.800 331.160,244.980 330.800,245.200 330.800 C 245.420 330.800,245.600 330.440,245.600 330.000 C 245.600 329.560,245.780 329.200,246.000 329.200 C 246.220 329.200,246.400 328.480,246.400 327.600 C 246.400 326.720,246.580 326.000,246.800 326.000 C 247.066 326.000,247.200 274.867,247.200 173.400 C 247.200 71.933,247.066 20.800,246.800 20.800 C 246.580 20.800,246.400 20.080,246.400 19.200 C 246.400 18.320,246.220 17.600,246.000 17.600 C 245.780 17.600,245.600 17.257,245.600 16.838 C 245.600 16.022,243.999 12.688,243.500 12.467 C 243.335 12.393,243.200 12.078,243.200 11.767 C 243.200 11.455,243.020 11.200,242.800 11.200 C 242.580 11.200,242.400 11.012,242.400 10.783 C 242.400 9.984,237.023 4.400,236.253 4.400 C 235.991 4.400,235.517 4.040,235.200 3.600 C 234.883 3.160,234.303 2.800,233.912 2.800 C 233.520 2.800,233.200 2.620,233.200 2.400 C 233.200 2.180,232.840 2.000,232.400 2.000 C 231.960 2.000,231.600 1.820,231.600 1.600 C 231.600 1.380,231.075 1.200,230.433 1.200 C 229.792 1.200,229.192 0.975,229.100 0.700 C 228.941 0.223,42.221 -0.182,38.500 0.287 M222.269 13.641 C 226.738 14.420,230.644 17.633,232.428 22.000 C 232.921 23.205,233.000 44.267,233.000 173.600 L 233.000 323.800 232.045 325.724 C 230.807 328.216,228.148 330.854,225.724 331.994 C 223.911 332.846,214.436 333.882,213.500 333.330 C 213.335 333.232,213.200 329.662,213.200 325.396 C 213.200 319.870,213.031 316.991,212.613 315.387 C 209.897 304.956,199.350 298.167,189.600 300.571 C 178.018 303.427,173.606 310.139,173.594 324.920 C 173.586 334.510,174.294 333.645,166.570 333.511 L 160.200 333.400 159.958 325.000 C 159.638 313.897,158.569 310.484,154.010 306.010 C 143.090 295.292,125.528 299.924,120.831 314.760 C 120.581 315.549,120.400 319.600,120.400 324.411 C 120.400 330.979,120.285 332.797,119.847 333.161 C 118.715 334.101,44.207 333.565,41.831 332.600 C 39.123 331.499,36.006 328.548,34.582 325.735 L 33.400 323.400 33.400 173.400 L 33.400 23.400 34.468 21.200 C 36.173 17.685,38.696 15.372,42.334 13.987 C 44.618 13.117,217.353 12.785,222.269 13.641 M68.654 27.435 C 62.918 28.823,57.687 33.127,55.328 38.400 C 53.762 41.900,53.800 40.870,53.800 80.000 C 53.800 110.788,53.900 118.060,54.340 119.200 C 56.896 125.822,60.453 129.544,66.600 132.029 L 69.000 133.000 133.200 133.000 L 197.400 133.000 200.000 132.044 C 206.419 129.684,211.185 124.261,212.761 117.523 C 213.374 114.904,213.375 45.104,212.762 42.477 C 211.012 34.968,204.724 28.780,197.280 27.239 C 193.764 26.511,71.702 26.697,68.654 27.435 M196.399 40.799 C 197.366 41.293,198.355 42.263,198.983 43.334 L 200.000 45.070 200.000 79.886 C 200.000 118.519,200.136 116.540,197.336 118.676 L 195.862 119.800 133.400 119.800 L 70.938 119.800 69.426 118.647 C 66.448 116.376,66.613 118.478,66.489 81.200 C 66.358 42.170,66.284 42.949,70.332 40.811 C 72.675 39.573,193.974 39.562,196.399 40.799 M98.222 53.710 C 96.390 54.182,89.840 60.214,87.940 63.178 C 85.611 66.812,87.198 71.566,91.166 72.843 C 93.731 73.668,93.600 72.844,93.603 88.149 C 93.605 101.082,93.663 102.288,94.336 103.308 C 97.153 107.580,103.239 107.522,105.778 103.199 C 106.580 101.834,106.600 101.271,106.600 79.971 L 106.600 58.142 105.536 56.533 C 103.924 54.098,101.037 52.984,98.222 53.710 M157.600 53.661 C 150.233 55.199,147.078 59.817,146.870 69.365 C 146.646 79.654,149.871 84.736,157.700 86.430 L 160.000 86.927 160.000 90.021 C 160.000 93.707,160.148 93.600,155.026 93.600 C 146.803 93.600,143.671 100.753,149.835 105.454 C 152.238 107.286,161.710 107.175,165.677 105.268 C 171.520 102.459,173.000 99.374,173.000 90.000 C 173.000 79.477,169.847 74.770,162.052 73.655 L 160.200 73.390 160.200 69.995 L 160.200 66.600 164.558 66.486 C 170.265 66.336,172.452 64.988,173.032 61.260 C 174.012 54.961,167.272 51.642,157.600 53.661 M123.181 94.501 C 117.847 98.096,120.252 106.400,126.627 106.400 C 133.329 106.400,135.622 98.323,130.004 94.500 C 128.180 93.258,125.024 93.259,123.181 94.501 M358.144 94.413 C 361.185 95.551,363.733 97.926,365.193 100.985 L 366.400 103.514 366.400 186.285 L 366.400 269.056 364.994 270.699 C 363.129 272.877,362.248 273.087,353.766 273.370 C 345.922 273.631,344.065 273.332,342.060 271.486 C 339.879 269.478,339.999 274.501,340.009 186.113 L 340.019 104.200 340.953 101.929 C 343.831 94.931,351.069 91.766,358.144 94.413 M290.400 94.400 C 290.400 94.620,290.665 94.800,290.988 94.800 C 293.836 94.800,297.842 99.230,299.030 103.694 C 299.789 106.544,299.827 266.655,299.070 268.614 C 297.694 272.170,296.862 272.479,287.489 272.916 C 277.199 273.396,276.720 273.289,274.391 270.000 L 273.400 268.600 273.400 186.200 L 273.400 103.800 274.440 101.582 C 276.192 97.848,279.132 95.100,282.143 94.382 C 284.068 93.923,290.400 93.937,290.400 94.400 M124.768 147.406 C 119.358 148.144,110.805 150.344,109.820 151.250 C 109.611 151.443,109.194 151.600,108.893 151.600 C 107.400 151.600,98.562 156.428,94.070 159.697 C 81.498 168.850,71.369 184.319,68.465 198.800 C 68.222 200.010,67.802 201.990,67.531 203.200 C 66.232 208.994,67.172 224.496,69.216 231.000 C 69.424 231.660,69.848 233.010,70.158 234.000 C 82.103 272.080,126.544 290.777,162.726 272.945 C 181.411 263.736,194.048 247.277,198.615 226.200 C 199.872 220.397,200.321 211.561,199.597 206.833 C 198.531 199.861,197.302 194.184,196.430 192.200 C 196.236 191.760,195.675 190.320,195.182 189.000 C 188.658 171.517,172.939 156.452,155.000 150.493 C 151.793 149.428,150.575 149.090,146.800 148.218 C 140.881 146.852,131.391 146.501,124.768 147.406 M141.600 160.599 C 143.470 160.920,145.630 161.355,146.400 161.565 C 147.170 161.774,148.250 162.063,148.800 162.206 C 149.350 162.350,150.160 162.614,150.600 162.794 C 151.040 162.975,152.480 163.530,153.800 164.029 C 155.120 164.528,156.650 165.227,157.200 165.583 C 157.750 165.938,158.740 166.487,159.400 166.804 C 162.669 168.369,168.172 172.599,167.775 173.240 C 167.653 173.438,165.232 173.600,162.396 173.600 C 150.297 173.600,143.241 178.773,140.571 189.600 C 140.135 191.370,140.026 199.083,140.014 229.066 L 140.000 266.332 136.930 266.619 C 133.089 266.979,127.146 266.555,126.724 265.891 C 126.553 265.621,126.409 248.429,126.406 227.687 C 126.400 190.593,126.386 189.934,125.570 187.487 C 122.409 178.016,115.653 173.600,104.324 173.600 C 98.029 173.600,97.910 173.546,100.119 171.700 C 106.969 165.975,115.602 162.187,125.800 160.433 C 129.060 159.873,137.918 159.965,141.600 160.599 M110.031 187.710 C 110.774 188.210,111.790 189.226,112.290 189.969 L 113.200 191.318 113.200 226.859 C 113.200 250.863,113.067 262.400,112.790 262.400 C 111.950 262.400,106.486 259.419,103.166 257.150 C 83.942 244.010,75.574 219.597,82.617 197.200 C 83.644 193.933,85.520 189.590,86.720 187.700 C 87.620 186.284,107.928 186.292,110.031 187.710 M181.114 189.926 C 193.214 213.849,185.011 243.415,162.200 258.096 C 158.857 260.247,154.662 262.400,153.811 262.400 C 153.020 262.400,152.869 193.906,153.655 191.560 C 155.120 187.187,156.347 186.803,168.867 186.801 L 179.533 186.800 181.114 189.926 M64.400 280.411 C 52.685 281.696,44.724 292.943,47.424 304.397 C 51.525 321.799,74.820 325.410,83.739 310.026 C 91.987 295.799,80.766 278.616,64.400 280.411 M70.055 294.228 C 70.650 294.536,71.491 295.286,71.923 295.894 C 76.829 302.797,67.525 310.684,61.866 304.420 C 56.814 298.828,63.312 290.741,70.055 294.228 M142.040 313.654 C 146.516 315.150,146.844 316.510,146.710 333.000 L 146.600 346.600 140.110 346.710 L 133.620 346.820 133.381 345.868 C 133.250 345.345,133.200 338.801,133.271 331.326 L 133.400 317.736 134.554 316.225 C 136.458 313.729,139.322 312.746,142.040 313.654 M195.507 313.819 C 199.871 315.643,200.000 316.187,200.000 332.849 L 200.000 346.800 193.400 346.800 L 186.800 346.800 186.800 332.580 C 186.800 317.160,186.788 317.255,189.064 315.150 C 191.088 313.279,193.181 312.847,195.507 313.819 M172.400 348.000 C 172.400 348.440,172.580 348.800,172.800 348.800 C 173.020 348.800,173.200 349.520,173.200 350.400 C 173.200 351.280,173.380 352.000,173.600 352.000 C 173.820 352.000,174.000 352.360,174.000 352.800 C 174.000 353.240,174.180 353.600,174.400 353.600 C 174.620 353.600,174.800 353.909,174.800 354.286 C 174.800 355.200,178.377 358.800,179.285 358.800 C 179.678 358.800,180.000 358.980,180.000 359.200 C 180.000 359.420,180.450 359.600,181.000 359.600 C 181.550 359.600,182.000 359.780,182.000 360.000 C 182.000 360.220,182.733 360.400,183.629 360.400 C 186.049 360.400,186.400 360.979,186.400 364.971 C 186.400 366.990,186.564 368.400,186.800 368.400 C 187.020 368.400,187.200 369.120,187.200 370.000 C 187.200 370.880,187.380 371.600,187.600 371.600 C 187.820 371.600,188.000 372.140,188.000 372.800 C 188.000 373.460,188.180 374.000,188.400 374.000 C 188.620 374.000,188.800 374.450,188.800 375.000 C 188.800 375.550,188.980 376.000,189.200 376.000 C 189.420 376.000,189.600 376.360,189.600 376.800 C 189.600 377.240,189.780 377.600,190.000 377.600 C 190.220 377.600,190.400 377.960,190.400 378.400 C 190.400 378.840,190.580 379.200,190.800 379.200 C 191.020 379.200,191.200 379.560,191.200 380.000 C 191.200 380.440,191.380 380.800,191.600 380.800 C 191.820 380.800,192.000 381.072,192.000 381.403 C 192.000 381.735,192.553 382.770,193.229 383.703 L 194.458 385.400 181.131 385.506 C 172.388 385.575,167.757 385.472,167.669 385.206 C 167.594 384.982,167.008 384.800,166.367 384.800 C 165.725 384.800,165.200 384.620,165.200 384.400 C 165.200 384.180,164.660 384.000,164.000 384.000 C 163.340 384.000,162.800 383.820,162.800 383.600 C 162.800 383.380,162.440 383.200,162.000 383.200 C 161.560 383.200,161.200 383.050,161.200 382.868 C 161.200 382.685,160.705 382.281,160.100 381.970 C 159.495 381.660,158.709 381.089,158.353 380.703 C 157.997 380.316,157.581 380.000,157.427 380.000 C 157.162 380.000,154.694 377.507,152.300 374.820 C 151.695 374.142,151.200 373.319,151.200 372.993 C 151.200 372.667,151.020 372.400,150.800 372.400 C 150.580 372.400,150.400 372.040,150.400 371.600 C 150.400 371.160,150.220 370.800,150.000 370.800 C 149.780 370.800,149.600 370.440,149.600 370.000 C 149.600 369.560,149.420 369.200,149.200 369.200 C 148.980 369.200,148.800 368.660,148.800 368.000 C 148.800 367.340,148.620 366.800,148.400 366.800 C 148.180 366.800,148.000 365.900,148.000 364.800 C 148.000 363.700,147.820 362.800,147.600 362.800 C 147.380 362.800,147.200 362.260,147.200 361.600 C 147.200 360.427,147.244 360.400,149.200 360.400 C 150.300 360.400,151.200 360.220,151.200 360.000 C 151.200 359.780,151.550 359.600,151.977 359.600 C 154.639 359.600,159.600 354.621,159.600 351.950 C 159.600 351.537,159.780 351.200,160.000 351.200 C 160.220 351.200,160.400 350.300,160.400 349.200 L 160.400 347.200 166.400 347.200 C 172.133 347.200,172.400 347.236,172.400 348.000 " stroke="none" fill="#040404" fill-rule="evenodd"></path></g></svg>