<svg id="svg" version="1.1" xmlns="http://www.w3.org/2000/svg" xmlns:xlink="http://www.w3.org/1999/xlink" width="400" height="400" viewBox="0, 0, 400,400"><g id="svgg"><path id="path0" d="M16.400 7.200 C 16.400 7.420,15.770 7.600,15.000 7.600 C 14.230 7.600,13.600 7.780,13.600 8.000 C 13.600 8.220,13.301 8.400,12.935 8.400 C 11.082 8.400,2.800 15.461,2.800 17.041 C 2.800 17.348,2.620 17.600,2.400 17.600 C 2.180 17.600,2.000 17.960,2.000 18.400 C 2.000 18.840,1.820 19.200,1.600 19.200 C 1.380 19.200,1.200 19.545,1.200 19.967 C 1.200 20.388,0.975 20.808,0.700 20.900 C -0.036 21.145,-0.036 378.855,0.700 379.100 C 0.975 379.192,1.200 379.612,1.200 380.033 C 1.200 380.455,1.380 380.800,1.600 380.800 C 1.820 380.800,2.000 381.160,2.000 381.600 C 2.000 382.040,2.180 382.400,2.400 382.400 C 2.620 382.400,2.800 382.652,2.800 382.959 C 2.800 383.531,8.010 388.997,9.418 389.902 C 9.848 390.179,10.830 390.696,11.600 391.051 C 12.370 391.407,13.313 391.856,13.695 392.049 C 14.077 392.242,14.831 392.400,15.371 392.400 C 15.911 392.400,16.464 392.580,16.600 392.800 C 16.764 393.065,60.871 393.200,147.624 393.200 C 234.541 393.200,278.400 393.066,278.400 392.800 C 278.400 392.580,278.940 392.400,279.600 392.400 C 280.260 392.400,280.800 392.220,280.800 392.000 C 280.800 391.780,281.259 391.600,281.820 391.600 C 282.909 391.600,285.007 390.650,285.909 389.748 C 286.210 389.447,286.605 389.200,286.786 389.200 C 287.431 389.200,291.600 384.628,291.600 383.921 C 291.600 383.524,291.747 383.200,291.926 383.200 C 292.392 383.200,294.000 380.069,294.000 379.162 C 294.000 378.743,294.180 378.400,294.400 378.400 C 294.620 378.400,294.800 377.860,294.800 377.200 C 294.800 376.540,294.980 376.000,295.200 376.000 C 295.465 376.000,295.600 350.000,295.600 298.800 C 295.600 247.600,295.465 221.600,295.200 221.600 C 294.980 221.600,294.800 221.317,294.800 220.971 C 294.800 220.163,293.837 219.200,293.029 219.200 C 292.683 219.200,292.400 218.997,292.400 218.748 C 292.400 218.001,288.394 218.735,286.530 219.824 C 283.330 221.692,283.600 214.531,283.600 297.646 C 283.600 370.771,283.587 372.004,282.807 374.089 C 281.831 376.699,279.643 379.023,277.000 380.258 L 275.000 381.192 147.400 381.187 C 24.303 381.183,19.744 381.156,18.200 380.446 C 15.383 379.149,13.169 376.668,12.106 373.618 C 11.382 371.541,11.382 28.452,12.106 26.400 C 13.236 23.197,15.626 20.700,18.919 19.282 C 19.784 18.909,48.963 18.801,147.519 18.804 L 275.000 18.808 277.000 19.743 C 279.582 20.951,282.110 23.720,282.956 26.268 C 283.861 28.994,283.741 39.945,282.800 40.412 C 282.470 40.576,280.968 41.315,279.463 42.055 C 275.530 43.988,270.709 48.167,259.755 59.139 C 254.451 64.453,249.938 68.800,249.727 68.800 C 249.517 68.800,248.389 68.087,247.222 67.216 C 238.933 61.032,226.826 60.997,218.400 67.133 C 217.630 67.694,212.102 73.012,206.115 78.952 C 200.128 84.892,194.997 89.882,194.711 90.042 C 194.426 90.201,183.754 90.416,170.996 90.518 C 146.185 90.717,146.968 90.654,141.600 92.889 C 136.023 95.211,131.104 99.439,126.814 105.600 C 126.277 106.370,125.731 107.090,125.600 107.200 C 125.469 107.310,124.925 108.030,124.392 108.800 C 123.858 109.570,123.280 110.380,123.107 110.600 C 122.934 110.820,121.923 112.170,120.860 113.600 C 119.797 115.030,116.184 119.890,112.831 124.400 C 109.478 128.910,106.403 133.050,105.998 133.600 C 102.372 138.527,101.388 139.827,101.157 140.000 C 101.010 140.110,100.247 141.371,99.462 142.803 C 93.548 153.579,97.854 166.803,109.091 172.378 L 111.583 173.614 111.347 175.334 C 111.170 176.627,111.322 177.491,111.960 178.811 L 112.808 180.567 86.204 207.199 L 59.600 233.831 59.600 235.721 C 59.600 237.635,60.008 238.704,61.331 240.259 C 62.165 241.239,63.197 239.396,53.190 254.800 C 50.261 259.310,47.111 264.170,46.192 265.600 C 45.273 267.030,43.476 269.820,42.200 271.800 C 38.529 277.497,38.400 277.789,38.400 280.400 C 38.400 286.337,44.899 291.271,49.881 289.116 C 50.927 288.664,57.745 284.092,77.405 270.658 L 85.515 265.117 87.293 266.158 C 89.226 267.291,91.819 267.539,93.322 266.735 C 94.462 266.125,131.726 228.864,132.333 227.726 C 134.759 223.185,129.411 217.766,124.880 220.174 C 124.286 220.490,116.437 228.123,107.438 237.138 C 96.253 248.342,90.887 253.455,90.477 253.297 C 88.702 252.616,73.153 236.338,73.644 235.676 C 74.868 234.030,120.493 188.800,120.930 188.800 C 121.198 188.800,127.174 194.565,134.209 201.611 C 152.251 219.682,149.121 219.473,164.962 203.667 L 175.853 192.800 222.027 192.808 L 268.200 192.816 271.200 195.042 C 275.815 198.465,283.828 201.600,287.964 201.600 C 288.612 201.600,289.413 201.870,289.743 202.200 C 290.117 202.574,291.099 202.800,292.348 202.800 C 293.451 202.800,294.464 202.980,294.600 203.200 C 294.742 203.431,296.871 203.600,299.624 203.600 L 304.400 203.600 304.400 213.200 C 304.400 219.333,304.544 222.800,304.800 222.800 C 305.020 222.800,305.200 223.004,305.200 223.253 C 305.200 223.925,306.812 225.200,307.661 225.200 C 308.068 225.200,308.400 225.380,308.400 225.600 C 308.400 225.864,323.333 226.000,352.400 226.000 C 381.467 226.000,396.400 225.864,396.400 225.600 C 396.400 225.380,396.752 225.200,397.182 225.200 C 397.612 225.200,398.422 224.742,398.982 224.182 L 400.000 223.164 400.000 208.643 C 400.000 192.503,400.130 193.294,397.239 191.870 C 395.558 191.043,394.952 191.026,394.655 191.800 C 394.529 192.130,393.941 192.400,393.350 192.400 C 389.599 192.400,388.641 194.878,388.400 205.200 L 388.200 213.800 352.400 213.800 L 316.600 213.800 316.499 157.698 L 316.397 101.596 352.299 101.698 L 388.200 101.800 388.400 136.800 C 388.607 172.974,388.608 172.995,390.254 174.467 C 391.770 175.822,397.200 177.409,397.200 176.498 C 397.200 176.331,397.721 175.965,398.357 175.683 C 400.053 174.932,399.989 176.611,399.995 133.074 C 400.000 92.936,399.945 91.200,398.674 91.200 C 398.401 91.200,397.917 90.840,397.600 90.400 C 397.029 89.607,396.565 89.600,346.312 89.600 L 295.600 89.600 295.600 70.800 L 295.600 52.000 345.200 52.000 C 378.000 52.000,394.800 51.865,394.800 51.600 C 394.800 51.380,395.403 51.200,396.141 51.200 C 397.094 51.200,397.856 50.842,398.777 49.962 L 400.073 48.724 399.936 44.832 C 399.795 40.790,399.640 40.409,397.690 39.300 C 396.999 38.907,385.954 38.800,346.205 38.800 L 295.600 38.800 295.600 31.400 C 295.600 26.733,295.452 24.000,295.200 24.000 C 294.980 24.000,294.800 23.460,294.800 22.800 C 294.800 22.140,294.620 21.600,294.400 21.600 C 294.180 21.600,294.000 21.060,294.000 20.400 C 294.000 19.740,293.820 19.200,293.600 19.200 C 293.380 19.200,293.200 18.880,293.200 18.488 C 293.200 18.097,292.840 17.517,292.400 17.200 C 291.960 16.883,291.600 16.339,291.600 15.991 C 291.600 15.346,287.384 10.800,286.786 10.800 C 286.605 10.800,286.210 10.553,285.909 10.252 C 285.082 9.425,282.942 8.400,282.043 8.400 C 281.606 8.400,281.136 8.220,281.000 8.000 C 280.864 7.780,280.223 7.600,279.576 7.600 C 278.929 7.600,278.400 7.420,278.400 7.200 C 278.400 6.934,234.467 6.800,147.400 6.800 C 60.333 6.800,16.400 6.934,16.400 7.200 M283.504 71.700 L 283.400 90.200 273.848 90.200 L 264.296 90.200 263.706 88.200 C 262.547 84.274,261.516 82.100,259.601 79.552 C 258.720 78.380,258.000 77.308,258.000 77.169 C 258.000 76.877,276.925 58.079,279.600 55.714 C 281.385 54.137,282.719 53.236,283.304 53.212 C 283.471 53.205,283.561 61.525,283.504 71.700 M39.800 56.867 C 28.020 60.829,23.956 73.434,31.473 82.698 C 38.690 91.593,54.441 89.373,58.438 78.896 L 58.783 77.993 79.079 78.096 L 99.375 78.200 100.271 79.797 C 107.382 92.476,124.376 90.921,129.949 77.081 C 133.569 68.094,124.890 56.400,114.600 56.400 C 109.029 56.400,102.964 59.963,100.600 64.623 C 100.160 65.490,99.620 66.332,99.400 66.494 C 99.180 66.656,89.972 66.791,78.938 66.794 L 58.876 66.800 57.674 64.669 C 54.224 58.556,45.761 54.862,39.800 56.867 M47.159 69.414 C 48.870 71.363,48.874 73.432,47.169 75.374 C 44.247 78.703,39.200 76.762,39.200 72.309 C 39.200 68.236,44.448 66.327,47.159 69.414 M117.671 69.147 C 120.244 71.446,118.942 76.266,115.545 77.012 C 110.824 78.049,107.956 71.780,111.747 68.709 C 113.177 67.550,116.128 67.768,117.671 69.147 M238.600 75.173 C 241.205 76.434,250.272 85.462,251.484 88.000 C 253.559 92.349,253.564 96.094,251.502 100.200 C 251.053 101.094,246.978 105.552,242.269 110.300 L 233.841 118.800 216.180 118.800 C 206.467 118.800,197.998 118.959,197.360 119.153 C 196.722 119.348,195.390 119.744,194.400 120.035 C 177.407 125.021,174.788 151.470,190.546 158.947 C 191.346 159.327,192.000 159.853,192.000 160.117 C 192.000 160.695,151.176 201.600,150.599 201.600 C 150.071 201.600,125.200 176.719,125.200 176.191 C 125.200 174.895,225.460 75.669,227.600 74.848 C 230.707 73.655,235.775 73.805,238.600 75.173 M182.800 101.942 C 182.800 102.659,123.643 161.361,122.143 162.133 C 116.789 164.887,109.519 161.019,108.123 154.673 C 107.467 151.694,108.813 148.145,112.094 144.200 C 112.277 143.980,114.761 140.650,117.615 136.800 C 120.469 132.950,123.031 129.530,123.308 129.200 C 123.585 128.870,124.250 127.970,124.786 127.200 C 125.323 126.430,125.869 125.710,126.000 125.600 C 126.131 125.490,126.671 124.770,127.199 124.000 C 128.738 121.759,135.991 112.029,138.144 109.317 C 141.004 105.717,145.241 102.977,149.400 102.041 C 151.449 101.579,182.800 101.487,182.800 101.942 M304.800 146.186 L 304.800 190.772 303.973 191.214 C 302.491 192.007,288.331 191.259,287.774 190.358 C 287.652 190.161,287.201 190.000,286.771 190.000 C 286.341 190.000,285.677 189.841,285.295 189.647 C 284.913 189.452,284.060 189.052,283.400 188.757 C 277.472 186.110,273.145 181.440,269.261 173.501 C 264.695 164.166,259.917 159.520,252.345 157.052 C 250.602 156.484,249.423 156.292,243.400 155.594 C 241.640 155.389,238.760 155.048,237.000 154.834 C 232.262 154.260,226.618 153.596,223.000 153.187 C 219.985 152.847,218.167 152.640,209.400 151.639 C 198.442 150.389,197.681 150.228,195.400 148.677 C 190.983 145.676,189.680 138.633,192.800 134.630 C 196.174 130.301,195.607 130.400,216.976 130.400 C 240.751 130.400,236.950 131.706,249.240 119.313 C 258.509 109.966,260.674 107.463,261.966 104.600 C 262.263 103.940,262.693 102.995,262.921 102.500 L 263.335 101.600 284.068 101.600 L 304.800 101.600 304.800 146.186 M40.400 109.445 C 39.412 109.631,38.733 109.896,36.008 111.156 C 30.655 113.632,26.721 121.715,27.956 127.700 C 31.088 142.874,50.142 146.199,57.691 132.889 L 58.888 130.779 64.544 130.889 L 70.200 131.000 70.305 146.173 C 70.387 158.046,70.300 161.416,69.905 161.667 C 69.627 161.844,60.819 161.991,50.331 161.994 L 31.261 162.000 29.976 163.081 C 27.705 164.993,27.600 165.649,27.600 178.003 C 27.600 195.687,23.539 193.800,61.600 193.800 C 99.399 193.800,95.313 195.432,95.536 180.249 C 95.731 166.969,95.558 165.463,93.606 163.512 L 92.094 162.000 87.347 161.994 C 84.736 161.991,82.382 161.849,82.115 161.680 C 81.749 161.447,81.602 156.718,81.515 142.386 C 81.365 117.553,82.561 119.600,68.193 119.600 C 59.587 119.600,58.753 119.540,58.520 118.900 C 56.238 112.631,47.551 108.098,40.400 109.445 M47.100 122.180 C 48.953 124.188,48.932 126.348,47.040 128.240 C 44.109 131.171,39.200 129.324,39.200 125.291 C 39.200 120.833,44.081 118.911,47.100 122.180 M210.600 163.015 C 211.920 163.130,214.170 163.389,215.600 163.591 C 217.030 163.794,220.000 164.152,222.200 164.387 C 226.345 164.831,230.972 165.380,235.800 166.001 C 237.340 166.199,240.490 166.561,242.800 166.805 C 247.388 167.289,249.516 167.738,251.484 168.637 C 252.924 169.294,256.400 172.694,256.400 173.446 C 256.400 173.714,256.544 173.993,256.720 174.067 C 257.129 174.237,259.456 179.085,259.814 180.515 L 260.087 181.600 224.043 181.600 C 195.042 181.600,188.000 181.500,188.000 181.088 C 188.000 179.886,206.303 162.281,207.274 162.549 C 207.783 162.691,209.280 162.900,210.600 163.015 M83.913 177.889 C 84.053 183.450,86.950 182.846,60.800 182.711 L 39.400 182.600 39.287 177.897 L 39.175 173.193 61.487 173.297 L 83.800 173.400 83.913 177.889 M332.155 191.453 C 329.881 191.959,328.108 195.533,328.870 198.076 C 330.654 204.031,339.600 202.901,339.600 196.721 C 339.600 192.882,336.285 190.536,332.155 191.453 M74.367 253.367 L 77.717 256.734 75.958 257.968 C 72.119 260.663,68.794 262.946,64.402 265.904 C 61.874 267.607,59.457 269.313,59.032 269.695 C 58.227 270.420,56.856 270.989,56.580 270.714 C 56.493 270.626,56.866 269.899,57.411 269.098 C 57.955 268.298,58.400 267.453,58.400 267.221 C 58.400 266.990,58.580 266.800,58.800 266.800 C 59.020 266.800,59.200 266.530,59.200 266.200 C 59.200 265.870,59.367 265.600,59.571 265.600 C 59.775 265.600,60.000 265.361,60.071 265.069 C 60.390 263.757,69.807 250.000,70.386 250.000 C 70.733 250.000,72.525 251.515,74.367 253.367 M110.800 277.542 C 102.125 279.405,96.539 289.091,99.190 297.675 C 103.316 311.032,120.365 313.324,128.042 301.554 C 128.671 300.589,129.376 299.575,129.608 299.300 C 130.236 298.559,179.312 298.571,179.928 299.313 C 180.190 299.629,180.401 303.075,180.477 308.282 C 180.641 319.580,180.718 319.676,189.800 320.000 L 195.400 320.200 195.500 323.800 L 195.600 327.400 189.417 333.700 L 183.235 340.000 156.679 340.000 C 127.218 340.000,129.759 340.233,128.383 337.400 C 123.134 326.593,105.361 327.284,100.089 338.500 C 91.398 356.988,119.312 371.175,128.619 353.000 L 129.439 351.400 158.419 351.200 C 191.496 350.972,187.901 351.453,192.600 346.626 C 208.251 330.550,206.820 332.610,207.143 325.705 L 207.400 320.200 223.954 320.096 C 235.841 320.020,240.661 320.119,241.054 320.444 C 241.467 320.787,241.600 322.233,241.600 326.371 L 241.600 331.843 242.900 333.074 C 244.671 334.751,246.641 335.348,248.424 334.749 C 251.774 333.624,252.400 332.192,252.400 325.663 C 252.400 319.527,251.895 320.000,258.446 320.000 C 263.928 320.000,265.366 319.578,266.947 317.505 L 268.000 316.124 267.999 298.562 C 267.997 282.085,267.951 280.924,267.246 279.768 C 265.581 277.038,268.044 277.177,223.460 277.294 L 183.264 277.400 182.271 278.333 C 181.152 279.384,180.400 281.881,180.400 284.544 C 180.400 287.901,182.923 287.600,154.820 287.600 L 129.726 287.600 128.805 285.809 C 125.671 279.716,117.707 276.059,110.800 277.542 M116.321 288.959 C 118.273 289.969,118.954 291.067,118.954 293.209 C 118.954 297.107,114.946 299.107,111.757 296.800 C 107.474 293.703,111.643 286.540,116.321 288.959 M256.359 288.950 C 256.679 289.336,256.783 292.289,256.707 298.850 L 256.600 308.200 250.000 308.445 C 241.186 308.771,193.035 308.865,192.233 308.557 C 191.574 308.304,191.224 289.309,191.867 288.667 C 192.448 288.085,255.872 288.364,256.359 288.950 M69.952 316.102 C 66.262 317.001,64.337 321.894,66.450 325.002 C 69.919 330.101,77.200 327.966,77.200 321.848 C 77.200 317.674,73.980 315.121,69.952 316.102 M41.400 316.377 C 39.029 317.344,37.221 320.904,38.004 323.062 C 40.202 329.122,46.520 329.711,49.352 324.120 C 51.690 319.502,46.390 314.341,41.400 316.377 M42.800 339.472 C 36.496 341.839,35.780 348.066,41.480 350.952 C 45.668 353.072,51.073 348.463,49.607 344.021 C 48.617 341.020,45.040 338.630,42.800 339.472 M69.800 339.722 C 66.654 340.975,65.595 342.380,65.535 345.386 C 65.416 351.322,73.357 353.697,76.438 348.645 C 79.214 344.093,74.554 337.829,69.800 339.722 M116.832 341.482 C 119.545 343.085,119.865 347.147,117.426 349.007 C 115.430 350.530,113.109 350.389,111.360 348.640 C 107.554 344.834,112.205 338.750,116.832 341.482 " stroke="none" fill="#050605" fill-rule="evenodd"></path><path id="path1" d="M221.248 81.051 C 220.164 81.810,126.000 175.893,126.000 176.217 C 126.000 176.554,150.377 200.801,150.707 200.793 C 151.361 200.776,191.261 160.423,191.017 160.027 C 190.871 159.792,190.493 159.600,190.176 159.600 C 189.859 159.600,189.600 159.432,189.600 159.227 C 189.600 159.022,189.263 158.747,188.851 158.616 C 187.781 158.277,183.841 154.367,182.620 152.432 C 176.799 143.211,178.649 129.957,186.628 123.717 C 187.414 123.103,188.443 122.275,188.916 121.877 C 189.999 120.966,192.402 119.884,195.628 118.855 C 196.610 118.543,202.741 118.400,215.220 118.400 L 233.384 118.400 239.892 111.833 C 246.442 105.225,247.546 103.555,246.000 102.600 C 245.780 102.464,245.600 101.930,245.600 101.414 C 245.600 100.464,244.052 97.112,243.500 96.867 C 243.335 96.793,243.200 96.478,243.200 96.167 C 243.200 95.855,243.020 95.600,242.800 95.600 C 242.580 95.600,242.400 95.420,242.400 95.199 C 242.400 94.790,232.859 85.085,231.389 83.999 C 229.675 82.734,227.306 81.644,224.942 81.034 C 221.974 80.268,222.369 80.267,221.248 81.051 M151.000 102.391 C 148.423 102.681,147.964 102.818,145.200 104.126 C 141.323 105.960,138.838 108.912,122.400 131.200 C 120.644 133.581,117.785 137.432,117.501 137.800 C 109.156 148.604,108.624 149.515,108.636 153.000 C 108.657 159.739,116.153 164.622,122.039 161.731 C 123.810 160.861,181.758 102.979,181.414 102.423 C 181.123 101.951,155.162 101.924,151.000 102.391 M262.326 104.900 C 260.363 108.828,260.016 109.228,249.023 120.231 C 237.214 132.050,240.895 130.800,217.904 130.800 C 197.416 130.800,198.008 130.749,195.384 132.739 C 192.313 135.068,190.051 142.195,192.000 143.400 C 192.220 143.536,192.400 143.988,192.400 144.405 C 192.400 145.293,196.168 149.200,197.024 149.200 C 197.347 149.200,197.923 149.364,198.305 149.565 C 198.687 149.766,200.800 150.135,203.000 150.384 C 205.200 150.634,208.440 151.012,210.200 151.225 C 211.960 151.438,215.830 151.891,218.800 152.232 C 221.770 152.572,225.640 153.019,227.400 153.223 C 229.160 153.427,234.650 154.056,239.600 154.621 C 258.408 156.766,262.715 159.489,270.030 173.858 C 274.241 182.130,278.258 186.166,284.889 188.787 C 290.476 190.994,298.243 191.855,302.623 190.753 L 304.400 190.305 304.400 146.416 L 304.400 102.527 296.300 102.265 C 291.845 102.120,282.704 102.002,275.988 102.001 L 263.775 102.000 262.326 104.900 M317.067 102.267 C 316.920 102.413,316.800 127.433,316.800 157.867 L 316.800 213.200 352.400 213.200 L 388.000 213.200 388.000 204.780 C 388.000 195.458,388.130 194.857,390.537 193.021 C 391.273 192.459,392.249 192.000,392.705 192.000 C 394.814 192.000,394.800 192.051,394.800 184.157 C 394.800 177.226,394.756 176.800,394.049 176.800 C 392.836 176.800,390.663 175.744,389.800 174.735 C 387.936 172.556,388.000 173.892,388.000 137.270 L 388.000 102.528 377.500 102.265 C 363.791 101.921,317.411 101.922,317.067 102.267 M197.240 172.176 L 188.200 181.195 223.700 181.198 C 261.916 181.200,259.881 181.310,258.842 179.295 C 258.645 178.913,257.903 177.394,257.192 175.919 C 254.211 169.734,251.583 168.268,241.600 167.219 C 239.290 166.977,234.430 166.427,230.800 165.997 C 227.170 165.567,222.490 165.025,220.400 164.792 C 218.310 164.559,215.250 164.203,213.600 164.000 C 211.950 163.797,209.628 163.525,208.440 163.394 L 206.280 163.156 197.240 172.176 M97.291 212.523 C 84.471 225.325,73.986 235.982,73.991 236.204 C 74.004 236.782,90.112 252.800,90.680 252.800 C 90.940 252.800,98.508 245.429,107.498 236.420 C 116.487 227.411,124.339 219.851,124.947 219.620 C 126.682 218.960,128.877 219.128,130.362 220.034 L 131.725 220.864 136.862 215.738 C 139.688 212.918,142.000 210.485,142.000 210.331 C 142.000 209.955,121.219 189.194,120.872 189.223 C 120.722 189.236,110.111 199.721,97.291 212.523 M336.940 191.404 C 339.770 192.762,340.928 197.073,339.216 199.881 C 336.863 203.741,330.363 203.157,328.595 198.927 C 326.484 193.874,331.902 188.989,336.940 191.404 M64.024 259.642 C 57.672 269.324,57.184 270.359,59.832 268.522 C 60.721 267.905,64.694 265.203,68.660 262.519 C 77.965 256.220,77.468 257.091,73.844 253.431 C 72.193 251.764,70.672 250.400,70.464 250.400 C 70.257 250.400,67.359 254.559,64.024 259.642 " stroke="none" fill="#c9cdd4" fill-rule="evenodd"></path><path id="path2" d="M20.400 19.574 C 16.501 20.361,13.934 22.936,12.440 27.560 C 11.814 29.495,11.814 370.505,12.440 372.440 C 13.668 376.241,15.103 378.096,18.010 379.646 L 19.800 380.600 142.365 380.703 C 258.825 380.801,264.969 380.771,265.713 380.103 C 268.909 377.233,269.154 374.608,269.172 343.000 C 269.188 317.406,269.061 314.638,267.996 317.209 C 266.920 319.806,265.034 320.525,258.769 320.725 L 253.200 320.903 253.200 325.992 C 253.200 331.690,252.782 332.837,250.031 334.690 C 247.103 336.664,241.203 334.548,241.200 331.524 C 241.200 331.152,241.020 330.736,240.800 330.600 C 240.569 330.458,240.400 328.329,240.400 325.576 L 240.400 320.800 224.200 320.800 L 208.000 320.800 208.000 324.794 C 208.000 332.123,208.668 331.113,193.945 346.060 C 187.672 352.428,191.625 351.768,158.400 352.000 L 129.800 352.200 129.405 353.100 C 129.188 353.595,128.873 354.000,128.705 354.000 C 128.537 354.000,128.396 354.225,128.391 354.500 C 128.361 356.117,121.701 361.200,119.611 361.200 C 119.191 361.200,118.736 361.380,118.600 361.600 C 118.303 362.080,110.724 362.143,110.180 361.670 C 109.971 361.488,109.035 361.099,108.100 360.806 C 107.165 360.512,106.400 360.121,106.400 359.936 C 106.400 359.751,106.130 359.600,105.800 359.600 C 105.470 359.600,105.200 359.420,105.200 359.200 C 105.200 358.980,104.984 358.800,104.719 358.800 C 104.455 358.800,103.461 357.976,102.510 356.970 C 89.409 343.101,106.011 321.901,122.811 331.045 C 124.780 332.116,128.400 335.567,128.400 336.371 C 128.400 336.607,128.536 336.800,128.702 336.800 C 128.869 336.800,129.244 337.340,129.536 338.000 L 130.067 339.200 156.564 339.200 L 183.061 339.200 189.131 333.006 L 195.200 326.811 195.200 323.851 L 195.200 320.891 189.700 320.725 C 180.241 320.441,179.600 319.612,179.600 307.662 L 179.600 299.594 154.719 299.697 L 129.839 299.800 129.019 301.369 C 128.053 303.219,124.198 307.200,123.374 307.200 C 123.058 307.200,122.799 307.335,122.797 307.500 C 122.793 307.901,120.819 308.800,119.944 308.800 C 119.561 308.800,119.136 308.980,119.000 309.200 C 118.693 309.697,110.652 309.735,109.695 309.244 C 109.313 309.048,108.100 308.464,107.000 307.947 C 98.992 304.183,95.645 294.062,99.657 285.743 C 100.899 283.168,105.030 278.800,106.223 278.800 C 106.540 278.800,106.800 278.620,106.800 278.400 C 106.800 278.180,107.149 278.000,107.576 278.000 C 108.003 278.000,108.464 277.820,108.600 277.600 C 108.736 277.380,109.341 277.200,109.944 277.200 C 110.547 277.200,111.236 277.004,111.475 276.765 C 111.921 276.319,116.302 276.453,118.600 276.983 C 122.501 277.883,126.816 281.255,129.036 285.138 L 129.872 286.600 154.636 286.600 L 179.400 286.600 179.648 284.200 C 179.785 282.880,180.098 281.260,180.344 280.600 C 180.591 279.940,180.898 279.111,181.028 278.757 C 181.157 278.404,181.986 277.729,182.869 277.257 L 184.476 276.400 224.214 276.400 C 250.275 276.400,264.038 276.538,264.200 276.800 C 264.336 277.020,264.783 277.200,265.194 277.200 C 266.018 277.200,268.384 279.827,268.428 280.791 C 268.447 281.209,268.564 281.148,268.800 280.600 C 269.313 279.407,269.299 195.332,268.786 194.374 C 268.380 193.616,267.439 193.600,222.187 193.600 L 176.003 193.600 165.413 204.183 C 150.886 218.701,150.333 218.916,144.234 212.395 L 142.292 210.319 136.953 215.647 C 133.000 219.592,131.760 221.058,132.177 221.291 C 133.102 221.809,133.707 224.285,133.409 226.330 C 133.109 228.384,96.438 265.932,93.258 267.441 C 91.520 268.265,88.896 268.008,87.275 266.853 C 86.616 266.384,85.884 266.000,85.648 266.000 C 85.152 266.000,76.266 272.014,76.067 272.485 C 75.993 272.658,75.723 272.800,75.467 272.801 C 75.210 272.801,74.370 273.341,73.600 274.000 C 72.830 274.659,71.990 275.199,71.733 275.199 C 71.477 275.200,71.207 275.345,71.133 275.523 C 71.060 275.701,69.020 277.180,66.600 278.810 C 64.180 280.440,62.110 281.881,62.000 282.011 C 61.632 282.445,53.645 287.785,51.710 288.891 C 46.107 292.091,39.463 288.786,37.658 281.900 C 37.121 279.851,38.929 274.000,40.099 274.000 C 40.265 274.000,40.400 273.764,40.400 273.475 C 40.400 273.187,40.760 272.564,41.200 272.092 C 41.640 271.620,42.000 271.140,42.000 271.027 C 42.000 270.913,43.916 267.890,46.258 264.310 C 52.928 254.113,53.846 252.688,54.634 251.300 C 55.040 250.585,55.514 250.000,55.686 250.000 C 55.859 250.000,56.000 249.764,56.000 249.475 C 56.000 249.187,56.360 248.564,56.800 248.092 C 57.240 247.620,57.600 247.080,57.600 246.892 C 57.600 246.704,57.915 246.193,58.300 245.755 C 58.997 244.963,59.686 243.871,60.645 242.039 C 61.086 241.198,61.027 240.920,60.174 239.802 C 59.148 238.457,58.691 233.200,59.600 233.200 C 59.820 233.200,60.000 233.012,60.000 232.783 C 60.000 232.553,71.708 220.654,86.018 206.339 C 111.759 180.590,112.029 180.304,111.418 179.371 C 111.045 178.802,110.796 177.511,110.790 176.114 L 110.780 173.800 107.917 172.419 C 101.093 169.127,96.000 160.827,96.000 153.000 C 96.000 149.447,97.674 144.193,99.830 140.978 C 101.567 138.386,105.965 132.384,106.408 132.000 C 106.535 131.890,107.071 131.170,107.600 130.400 C 108.129 129.630,108.669 128.910,108.800 128.800 C 108.931 128.690,109.477 127.970,110.014 127.200 C 110.550 126.430,111.204 125.530,111.468 125.200 C 111.732 124.870,113.800 122.080,116.063 119.000 C 118.326 115.920,120.281 113.310,120.408 113.200 C 120.535 113.090,121.071 112.370,121.600 111.600 C 122.129 110.830,122.669 110.110,122.800 110.000 C 122.931 109.890,123.471 109.170,124.000 108.400 C 124.529 107.630,125.072 106.910,125.207 106.800 C 125.342 106.690,126.065 105.700,126.814 104.600 C 132.185 96.705,139.190 92.016,148.400 90.149 C 149.170 89.993,159.876 89.803,172.192 89.726 L 194.584 89.587 206.192 78.057 C 214.354 69.950,218.453 66.165,220.000 65.309 C 228.799 60.441,238.909 60.796,246.917 66.256 L 249.633 68.108 250.675 67.154 C 251.248 66.629,255.605 62.352,260.358 57.649 L 269.000 49.098 269.000 37.849 C 269.000 26.531,268.964 26.179,267.480 22.800 C 267.238 22.250,266.617 21.215,266.100 20.500 L 265.159 19.200 143.480 19.246 C 76.556 19.271,21.170 19.419,20.400 19.574 M48.681 56.451 C 53.458 58.374,56.921 61.314,58.432 64.728 L 58.995 66.000 79.059 66.000 L 99.124 66.000 100.319 63.881 C 102.140 60.655,105.111 58.306,109.719 56.451 C 111.375 55.784,117.888 55.893,119.800 56.620 C 120.680 56.955,121.715 57.333,122.100 57.461 C 122.485 57.589,122.800 57.852,122.800 58.047 C 122.800 58.241,123.058 58.400,123.374 58.400 C 124.471 58.400,128.345 62.771,129.676 65.511 C 131.638 69.547,131.595 75.729,129.578 79.579 C 123.230 91.698,107.773 92.425,100.270 80.958 L 98.989 79.000 79.135 78.896 L 59.281 78.793 58.072 80.935 C 52.775 90.320,38.990 91.836,31.710 83.834 C 29.661 81.583,28.000 78.785,28.000 77.586 C 28.000 77.180,27.820 76.736,27.600 76.600 C 26.833 76.126,27.136 69.637,28.047 67.027 C 29.488 62.901,32.973 58.988,36.599 57.426 C 37.259 57.142,38.250 56.716,38.800 56.481 C 40.142 55.908,47.279 55.886,48.681 56.451 M263.673 72.127 C 259.115 76.695,258.319 77.735,259.123 78.067 C 260.397 78.592,264.400 86.598,264.400 88.619 C 264.400 89.551,264.519 89.600,266.800 89.600 L 269.200 89.600 269.200 78.624 C 269.200 72.587,269.053 67.556,268.873 67.445 C 268.693 67.334,266.353 69.441,263.673 72.127 M47.000 108.800 C 47.136 109.020,47.668 109.200,48.183 109.200 C 50.905 109.200,57.346 114.336,58.449 117.384 L 58.939 118.739 68.586 118.869 C 83.300 119.069,82.400 117.514,82.400 142.746 L 82.400 161.101 87.100 161.275 C 93.146 161.499,94.600 162.265,95.863 165.894 C 96.571 167.926,96.616 187.369,95.918 189.754 C 95.401 191.525,93.270 194.000,92.264 194.000 C 91.925 194.000,91.536 194.180,91.400 194.400 C 91.239 194.661,80.954 194.800,61.852 194.800 C 29.892 194.800,30.667 194.853,28.795 192.537 C 27.236 190.607,27.200 190.276,27.200 177.797 L 27.200 165.583 28.253 163.991 C 28.832 163.116,29.537 162.400,29.820 162.400 C 30.102 162.400,30.408 162.175,30.500 161.900 C 30.629 161.513,35.039 161.355,50.033 161.200 L 69.400 161.000 69.505 146.300 L 69.610 131.600 64.299 131.600 L 58.989 131.600 58.303 133.183 C 57.430 135.199,53.803 138.782,51.542 139.865 C 48.241 141.445,47.550 141.600,43.800 141.600 C 40.060 141.600,39.358 141.444,36.096 139.885 C 32.678 138.251,29.508 134.768,28.375 131.400 C 28.079 130.520,27.693 129.629,27.518 129.420 C 27.054 128.865,27.127 121.292,27.600 121.000 C 27.820 120.864,28.000 120.420,28.000 120.014 C 28.000 118.632,29.794 115.806,32.200 113.398 C 34.785 110.811,35.578 110.341,39.800 108.896 C 41.373 108.357,46.683 108.287,47.000 108.800 M290.168 210.600 C 290.168 215.000,290.226 216.855,290.298 214.721 C 290.370 212.588,290.370 208.988,290.299 206.721 C 290.227 204.455,290.168 206.200,290.168 210.600 M47.784 316.560 C 52.859 320.431,50.205 328.400,43.840 328.400 C 36.779 328.400,34.634 318.989,41.000 315.939 C 43.201 314.885,45.912 315.133,47.784 316.560 M74.262 315.856 C 77.056 317.182,78.811 320.699,77.986 323.321 C 76.051 329.478,68.398 330.281,65.513 324.630 C 62.793 319.299,68.807 313.268,74.262 315.856 M46.659 339.390 C 52.919 342.513,50.768 352.000,43.800 352.000 C 36.759 352.000,34.655 342.831,40.903 339.375 C 42.160 338.680,45.252 338.688,46.659 339.390 M73.881 339.292 C 80.482 342.193,78.474 352.000,71.279 352.000 C 64.376 352.000,62.381 342.779,68.543 339.355 C 69.690 338.717,72.498 338.684,73.881 339.292 " stroke="none" fill="#bbeb6b" fill-rule="evenodd"></path><path id="path3" d="M21.115 19.128 C 20.738 19.278,75.443 19.354,142.681 19.297 C 251.953 19.206,265.003 19.260,265.608 19.807 C 266.296 20.430,267.482 22.674,268.459 25.200 C 268.868 26.258,269.000 29.358,269.000 37.899 C 269.000 44.114,269.046 49.199,269.102 49.199 C 269.158 49.200,270.598 48.017,272.302 46.572 C 275.510 43.850,278.589 41.875,281.382 40.747 L 283.000 40.093 283.000 33.330 L 283.000 26.566 281.654 24.346 C 280.120 21.817,277.607 19.974,274.723 19.263 C 272.647 18.751,22.400 18.618,21.115 19.128 M280.122 55.700 C 279.001 56.635,273.610 61.898,268.142 67.395 C 262.674 72.892,260.549 75.091,263.419 72.281 C 266.290 69.471,268.765 67.299,268.919 67.453 C 269.074 67.607,269.200 72.644,269.200 78.647 L 269.200 89.560 266.900 89.708 C 265.635 89.790,268.740 89.844,273.800 89.828 L 283.000 89.800 283.104 71.900 C 283.221 51.784,283.433 52.937,280.122 55.700 M46.433 56.144 C 46.525 56.223,47.140 56.408,47.800 56.556 C 48.676 56.752,48.838 56.715,48.400 56.418 C 47.860 56.053,46.032 55.798,46.433 56.144 M110.000 56.418 C 109.562 56.715,109.724 56.752,110.600 56.556 C 112.071 56.227,112.390 55.998,111.367 56.006 C 110.945 56.009,110.330 56.195,110.000 56.418 M117.233 56.144 C 117.325 56.223,117.940 56.408,118.600 56.556 C 119.476 56.752,119.638 56.715,119.200 56.418 C 118.660 56.053,116.832 55.798,117.233 56.144 M32.006 60.594 C 31.263 61.361,30.732 62.050,30.827 62.125 C 30.922 62.200,31.606 61.573,32.346 60.731 C 34.029 58.818,33.812 58.731,32.006 60.594 M102.175 61.300 L 101.000 62.600 102.300 61.425 C 103.512 60.330,103.784 60.000,103.475 60.000 C 103.406 60.000,102.821 60.585,102.175 61.300 M230.283 61.939 C 229.889 62.095,231.006 62.217,232.766 62.211 C 234.526 62.205,235.659 62.078,235.283 61.928 C 234.388 61.572,231.196 61.579,230.283 61.939 M99.463 65.379 C 99.257 65.917,96.736 66.006,78.914 66.100 L 58.600 66.207 78.851 66.304 C 99.286 66.401,101.212 66.279,99.906 64.973 C 99.792 64.859,99.593 65.042,99.463 65.379 M250.587 67.214 C 250.161 67.685,249.587 67.928,249.225 67.790 C 248.721 67.599,248.698 67.651,249.105 68.062 C 249.514 68.473,249.819 68.363,250.696 67.485 C 251.293 66.888,251.679 66.400,251.553 66.400 C 251.427 66.400,250.992 66.766,250.587 67.214 M205.797 78.500 L 194.600 89.800 205.900 78.603 C 212.115 72.444,217.200 67.359,217.200 67.303 C 217.200 67.020,216.203 67.999,205.797 78.500 M59.062 78.700 C 58.960 78.865,67.796 78.952,78.698 78.893 C 97.178 78.792,98.575 78.833,99.317 79.493 C 100.094 80.183,100.100 80.179,99.560 79.300 L 99.008 78.400 79.127 78.400 C 68.193 78.400,59.164 78.535,59.062 78.700 M55.381 84.100 L 53.800 85.800 55.500 84.219 C 56.435 83.349,57.200 82.584,57.200 82.519 C 57.200 82.216,56.852 82.519,55.381 84.100 M102.783 84.100 C 104.441 85.866,104.800 86.184,104.800 85.883 C 104.800 85.819,103.945 84.964,102.900 83.983 L 101.000 82.200 102.783 84.100 M40.600 88.781 C 41.368 89.129,43.510 89.356,43.167 89.053 C 43.075 88.972,42.280 88.796,41.400 88.662 C 40.285 88.493,40.042 88.529,40.600 88.781 M45.000 88.800 L 43.400 89.086 44.800 89.137 C 45.570 89.165,46.470 89.013,46.800 88.800 C 47.455 88.377,47.362 88.377,45.000 88.800 M111.400 88.790 C 112.164 89.128,114.714 89.357,114.367 89.056 C 114.275 88.976,113.390 88.804,112.400 88.673 C 111.198 88.514,110.866 88.553,111.400 88.790 M116.000 88.800 C 114.633 89.088,114.628 89.095,115.800 89.119 C 116.460 89.133,117.360 88.989,117.800 88.800 C 118.762 88.387,117.964 88.387,116.000 88.800 M149.738 89.906 C 149.319 90.172,177.298 90.157,189.600 89.884 C 192.350 89.824,184.610 89.738,172.400 89.693 C 160.190 89.649,149.992 89.744,149.738 89.906 M40.538 108.706 C 40.284 108.868,41.662 109.000,43.600 109.000 C 45.538 109.000,47.040 108.865,46.938 108.700 C 46.699 108.314,41.147 108.319,40.538 108.706 M52.794 111.582 C 53.341 112.002,53.868 112.266,53.965 112.169 C 54.191 111.942,52.729 110.827,52.200 110.822 C 51.980 110.820,52.247 111.161,52.794 111.582 M63.678 119.098 C 66.031 119.169,69.991 119.169,72.478 119.099 C 74.965 119.029,73.040 118.971,68.200 118.970 C 63.360 118.970,61.325 119.028,63.678 119.098 M82.194 142.700 L 82.200 161.400 86.200 161.421 L 90.200 161.442 86.304 161.307 L 82.408 161.172 82.298 142.586 L 82.188 124.000 82.194 142.700 M27.228 128.276 C 27.213 128.758,27.380 129.264,27.600 129.400 C 28.073 129.692,28.073 129.301,27.600 128.200 C 27.269 127.429,27.255 127.431,27.228 128.276 M64.204 131.494 L 69.610 131.623 69.505 146.311 L 69.400 161.000 51.000 161.208 L 32.600 161.416 51.200 161.408 L 69.800 161.400 69.800 146.400 L 69.800 131.400 64.299 131.382 L 58.799 131.365 64.204 131.494 M104.344 134.700 C 103.193 136.089,102.706 136.800,102.904 136.800 C 103.014 136.800,103.586 136.170,104.173 135.400 C 105.263 133.971,105.395 133.432,104.344 134.700 M31.800 136.800 C 32.659 137.680,33.452 138.400,33.562 138.400 C 33.672 138.400,33.059 137.680,32.200 136.800 C 31.341 135.920,30.548 135.200,30.438 135.200 C 30.328 135.200,30.941 135.920,31.800 136.800 M96.252 150.100 C 95.934 151.288,95.984 155.217,96.328 156.085 C 96.478 156.462,96.600 155.067,96.600 152.985 C 96.600 148.824,96.598 148.809,96.252 150.100 M101.122 167.100 C 101.777 167.925,102.728 168.960,103.236 169.400 C 103.744 169.840,103.279 169.165,102.203 167.900 C 100.013 165.324,99.290 164.789,101.122 167.100 M95.904 174.537 C 96.074 188.370,96.234 189.722,96.313 178.000 C 96.354 171.950,96.256 166.791,96.094 166.537 C 95.932 166.282,95.847 169.882,95.904 174.537 M103.385 188.900 L 101.400 191.000 103.500 189.015 C 104.655 187.923,105.600 186.978,105.600 186.915 C 105.600 186.617,105.229 186.949,103.385 188.900 M175.862 193.500 C 175.760 193.665,196.494 193.753,221.938 193.696 C 265.110 193.598,268.233 193.637,268.700 194.272 C 269.292 195.078,269.389 279.229,268.800 280.600 C 268.520 281.252,268.451 281.275,268.428 280.724 C 268.413 280.352,268.240 279.948,268.045 279.828 C 267.850 279.707,267.948 280.487,268.262 281.561 C 268.906 283.755,268.905 314.675,268.262 316.200 C 268.035 316.738,268.050 316.825,268.307 316.466 C 269.116 315.336,269.199 317.881,269.178 343.133 C 269.152 374.601,268.905 377.236,265.714 380.103 C 264.971 380.770,258.790 380.800,142.481 380.703 C 75.133 380.646,20.338 380.722,20.715 380.872 C 21.949 381.361,273.322 381.251,274.840 380.760 C 278.509 379.574,280.092 378.347,281.884 375.299 L 283.000 373.400 283.200 297.969 L 283.400 222.538 284.476 221.127 C 285.523 219.754,286.652 219.116,288.900 218.625 L 290.000 218.385 290.000 210.411 L 290.000 202.438 288.500 202.021 C 287.675 201.792,286.521 201.603,285.936 201.602 C 282.807 201.596,274.643 198.090,270.608 195.020 L 268.216 193.200 222.131 193.200 C 196.785 193.200,175.964 193.335,175.862 193.500 M31.862 194.500 C 31.964 194.665,45.346 194.800,61.600 194.800 C 77.854 194.800,91.236 194.665,91.338 194.500 C 91.440 194.335,78.058 194.200,61.600 194.200 C 45.142 194.200,31.760 194.335,31.862 194.500 M144.800 213.000 C 145.995 214.210,147.063 215.200,147.173 215.200 C 147.283 215.200,146.395 214.210,145.200 213.000 C 144.005 211.790,142.937 210.800,142.827 210.800 C 142.717 210.800,143.605 211.790,144.800 213.000 M153.200 215.248 C 152.430 215.661,152.095 215.999,152.456 215.999 C 152.816 216.000,153.536 215.646,154.056 215.213 C 155.200 214.260,155.031 214.267,153.200 215.248 M70.987 221.300 L 68.600 223.800 71.100 221.413 C 73.422 219.195,73.783 218.800,73.487 218.800 C 73.426 218.800,72.301 219.925,70.987 221.300 M133.301 225.000 C 133.305 225.880,133.387 226.193,133.483 225.695 C 133.579 225.198,133.575 224.478,133.475 224.095 C 133.375 223.713,133.296 224.120,133.301 225.000 M113.198 247.900 L 94.200 267.000 113.300 248.002 C 131.053 230.343,132.580 228.800,132.298 228.800 C 132.243 228.800,123.648 237.395,113.198 247.900 M54.653 251.300 L 53.933 252.600 54.758 251.600 C 55.489 250.713,55.814 250.000,55.486 250.000 C 55.424 250.000,55.049 250.585,54.653 251.300 M51.302 256.500 C 50.736 257.215,49.940 258.800,50.146 258.800 C 50.242 258.800,50.693 258.170,51.147 257.400 C 51.973 256.001,52.049 255.557,51.302 256.500 M48.953 260.100 C 47.576 262.436,47.486 262.635,48.187 261.800 C 49.000 260.832,49.700 259.600,49.438 259.600 C 49.333 259.600,49.115 259.825,48.953 260.100 M92.400 267.434 C 91.090 267.970,91.077 267.992,92.200 267.775 C 92.860 267.648,93.571 267.376,93.780 267.172 C 94.259 266.703,94.121 266.729,92.400 267.434 M88.600 267.600 C 89.040 267.789,89.760 267.938,90.200 267.932 C 90.843 267.923,90.804 267.857,90.000 267.600 C 88.632 267.162,87.581 267.162,88.600 267.600 M111.462 276.700 C 111.360 276.865,112.772 277.000,114.600 277.000 C 116.428 277.000,117.716 276.868,117.462 276.706 C 116.853 276.319,111.701 276.314,111.462 276.700 M183.862 276.700 C 183.760 276.865,201.822 277.000,224.000 277.000 C 246.178 277.000,264.240 276.865,264.138 276.700 C 264.036 276.535,245.974 276.400,224.000 276.400 C 202.026 276.400,183.964 276.535,183.862 276.700 M102.585 281.700 L 100.600 283.800 102.700 281.815 C 103.855 280.723,104.800 279.778,104.800 279.715 C 104.800 279.417,104.429 279.749,102.585 281.700 M179.849 281.815 C 179.712 282.173,179.618 282.856,179.641 283.333 C 179.667 283.881,179.803 283.686,180.010 282.803 C 180.360 281.316,180.265 280.733,179.849 281.815 M60.400 282.836 C 59.736 283.379,59.669 283.515,60.200 283.240 C 61.505 282.566,62.228 282.012,61.800 282.015 C 61.580 282.017,60.950 282.386,60.400 282.836 M56.406 285.423 C 54.979 286.400,53.953 287.200,54.127 287.200 C 54.513 287.200,59.200 284.045,59.200 283.785 C 59.200 283.509,59.203 283.508,56.406 285.423 M38.800 285.012 C 38.800 285.162,39.250 285.819,39.800 286.473 C 40.350 287.127,40.800 287.539,40.800 287.388 C 40.800 287.238,40.350 286.581,39.800 285.927 C 39.250 285.273,38.800 284.861,38.800 285.012 M129.549 286.500 C 130.129 287.240,179.600 287.635,179.600 286.900 C 179.600 286.735,168.507 286.648,154.948 286.706 C 135.547 286.790,130.159 286.704,129.648 286.306 C 129.072 285.856,129.061 285.878,129.549 286.500 M52.300 288.229 C 50.805 289.040,50.896 289.378,52.400 288.600 C 53.060 288.259,53.600 287.894,53.600 287.790 C 53.600 287.532,53.557 287.547,52.300 288.229 M129.549 299.900 C 129.063 300.519,129.073 300.543,129.637 300.103 C 130.126 299.722,136.052 299.581,155.037 299.500 L 179.800 299.394 154.949 299.297 C 131.690 299.206,130.063 299.245,129.549 299.900 M102.600 304.800 C 103.459 305.680,104.252 306.400,104.362 306.400 C 104.472 306.400,103.859 305.680,103.000 304.800 C 102.141 303.920,101.348 303.200,101.238 303.200 C 101.128 303.200,101.741 303.920,102.600 304.800 M43.100 315.482 C 43.595 315.578,44.405 315.578,44.900 315.482 C 45.395 315.387,44.990 315.309,44.000 315.309 C 43.010 315.309,42.605 315.387,43.100 315.482 M70.700 315.482 C 71.195 315.578,72.005 315.578,72.500 315.482 C 72.995 315.387,72.590 315.309,71.600 315.309 C 70.610 315.309,70.205 315.387,70.700 315.482 M48.394 317.403 C 49.987 319.321,50.121 319.445,49.686 318.596 C 49.459 318.153,48.852 317.434,48.337 316.998 C 47.433 316.234,47.435 316.248,48.394 317.403 M267.343 317.804 C 267.216 318.136,266.366 318.854,265.456 319.400 C 264.545 319.946,263.959 320.394,264.153 320.396 C 264.821 320.403,267.211 318.727,267.619 317.964 C 267.844 317.544,267.926 317.200,267.802 317.200 C 267.677 317.200,267.471 317.472,267.343 317.804 M181.421 318.834 C 181.695 319.277,184.016 320.518,184.209 320.324 C 184.284 320.250,183.635 319.800,182.768 319.325 C 181.900 318.850,181.294 318.629,181.421 318.834 M50.124 321.800 C 50.126 323.120,50.201 323.612,50.290 322.893 C 50.379 322.174,50.377 321.094,50.286 320.493 C 50.195 319.892,50.122 320.480,50.124 321.800 M37.314 321.800 C 37.317 322.900,37.395 323.303,37.487 322.695 C 37.579 322.086,37.577 321.186,37.482 320.695 C 37.387 320.203,37.311 320.700,37.314 321.800 M77.800 321.800 C 77.800 322.748,77.932 323.316,78.094 323.062 C 78.256 322.808,78.388 322.240,78.388 321.800 C 78.388 321.360,78.256 320.792,78.094 320.538 C 77.932 320.284,77.800 320.852,77.800 321.800 M187.900 320.696 C 189.275 320.774,191.525 320.774,192.900 320.696 C 194.275 320.618,193.150 320.554,190.400 320.554 C 187.650 320.554,186.525 320.618,187.900 320.696 M207.595 324.700 C 207.592 327.065,207.498 329.450,207.386 330.000 C 207.210 330.872,207.232 330.897,207.564 330.200 C 207.773 329.760,207.956 327.465,207.972 325.100 L 208.000 320.800 224.200 320.800 L 240.400 320.800 240.400 325.576 C 240.400 328.792,240.553 330.447,240.868 330.642 C 241.187 330.839,241.251 330.709,241.068 330.233 C 240.921 329.849,240.800 327.479,240.800 324.967 L 240.800 320.400 224.200 320.400 L 207.600 320.400 207.595 324.700 M255.516 320.697 C 256.899 320.775,259.059 320.774,260.316 320.695 C 261.572 320.616,260.440 320.552,257.800 320.553 C 255.160 320.553,254.132 320.618,255.516 320.697 M38.000 325.159 C 38.000 325.531,40.354 327.799,40.503 327.571 C 40.564 327.477,40.026 326.830,39.307 326.134 C 38.588 325.438,38.000 324.999,38.000 325.159 M65.899 325.404 C 66.363 326.279,67.945 327.830,68.102 327.564 C 68.156 327.474,67.586 326.770,66.836 326.000 C 66.086 325.230,65.665 324.962,65.899 325.404 M110.800 329.218 C 110.362 329.515,110.524 329.552,111.400 329.356 C 112.871 329.027,113.190 328.798,112.167 328.806 C 111.745 328.809,111.130 328.995,110.800 329.218 M191.000 331.121 C 190.780 331.291,188.890 333.223,186.800 335.415 L 183.000 339.400 187.300 335.207 C 189.665 332.901,191.600 330.966,191.600 330.907 C 191.600 330.731,191.423 330.794,191.000 331.121 M125.800 333.600 C 126.659 334.480,127.452 335.200,127.562 335.200 C 127.672 335.200,127.059 334.480,126.200 333.600 C 125.341 332.720,124.548 332.000,124.438 332.000 C 124.328 332.000,124.941 332.720,125.800 333.600 M203.389 336.100 L 200.600 339.000 203.500 336.211 C 206.194 333.620,206.583 333.200,206.289 333.200 C 206.228 333.200,204.923 334.505,203.389 336.100 M101.123 335.500 C 100.418 336.321,99.890 337.200,100.101 337.200 C 100.183 337.200,100.649 336.660,101.137 336.000 C 102.101 334.696,102.092 334.372,101.123 335.500 M246.105 335.487 C 246.714 335.579,247.614 335.577,248.105 335.482 C 248.597 335.387,248.100 335.311,247.000 335.314 C 245.900 335.317,245.497 335.395,246.105 335.487 M129.592 338.700 L 130.028 339.600 156.514 339.503 L 183.000 339.406 156.642 339.300 C 132.138 339.202,130.244 339.145,129.720 338.497 C 129.212 337.870,129.199 337.890,129.592 338.700 M41.462 339.100 C 41.360 339.265,42.412 339.400,43.800 339.400 C 45.188 339.400,46.240 339.265,46.138 339.100 C 46.036 338.935,44.984 338.800,43.800 338.800 C 42.616 338.800,41.564 338.935,41.462 339.100 M69.057 339.107 C 68.953 339.276,69.617 339.357,70.534 339.286 C 73.225 339.079,73.553 338.896,71.324 338.846 C 70.182 338.821,69.162 338.938,69.057 339.107 M39.004 340.796 C 38.374 341.454,37.935 342.042,38.029 342.103 C 38.123 342.164,38.770 341.626,39.466 340.907 C 40.162 340.188,40.601 339.600,40.441 339.600 C 40.281 339.600,39.634 340.138,39.004 340.796 M48.134 340.907 C 48.830 341.626,49.477 342.164,49.571 342.103 C 49.799 341.954,47.531 339.600,47.159 339.600 C 46.999 339.600,47.438 340.188,48.134 340.907 M66.770 340.700 L 65.800 341.800 67.000 340.800 C 67.660 340.250,68.275 339.755,68.367 339.700 C 68.458 339.645,68.355 339.600,68.136 339.600 C 67.918 339.600,67.303 340.095,66.770 340.700 M37.364 343.351 C 37.247 343.654,37.211 344.779,37.284 345.851 L 37.415 347.800 37.608 345.299 C 37.802 342.773,37.749 342.347,37.364 343.351 M50.114 345.400 C 50.117 346.500,50.195 346.903,50.287 346.295 C 50.379 345.686,50.377 344.786,50.282 344.295 C 50.187 343.803,50.111 344.300,50.114 345.400 M77.693 345.600 C 77.693 346.370,77.775 346.685,77.876 346.300 C 77.976 345.915,77.976 345.285,77.876 344.900 C 77.775 344.515,77.693 344.830,77.693 345.600 M49.403 348.391 C 49.265 348.826,48.488 349.744,47.676 350.432 C 46.864 351.120,46.586 351.488,47.057 351.250 C 48.006 350.772,50.000 348.548,50.000 347.969 C 50.000 347.330,49.664 347.567,49.403 348.391 M38.801 349.737 C 39.351 350.362,40.160 351.059,40.600 351.286 C 41.442 351.720,41.418 351.693,39.201 349.797 L 37.803 348.600 38.801 349.737 M75.200 350.460 C 74.430 351.135,74.162 351.505,74.604 351.281 C 75.335 350.911,77.147 349.178,76.762 349.216 C 76.673 349.225,75.970 349.785,75.200 350.460 M129.549 352.300 C 129.063 352.920,129.073 352.943,129.638 352.503 C 130.129 352.119,136.731 351.981,158.438 351.900 L 186.600 351.795 158.349 351.697 C 131.852 351.606,130.064 351.643,129.549 352.300 M126.200 356.735 C 125.100 357.972,124.560 358.717,125.000 358.392 C 126.055 357.611,128.379 355.081,128.391 354.700 C 128.404 354.261,128.380 354.284,126.200 356.735 " stroke="none" fill="#a0df2b" fill-rule="evenodd"></path><path id="path4" d="M19.200 19.200 C 18.413 19.709,19.816 19.709,21.000 19.200 C 21.733 18.885,21.716 18.854,20.800 18.834 C 20.250 18.822,19.530 18.987,19.200 19.200 M274.400 19.200 C 275.768 19.638,276.819 19.638,275.800 19.200 C 275.360 19.011,274.640 18.862,274.200 18.868 C 273.557 18.877,273.596 18.943,274.400 19.200 M16.103 20.910 C 14.338 22.252,12.387 24.776,12.418 25.679 C 12.427 25.965,12.775 25.557,13.191 24.771 C 13.908 23.415,16.158 21.161,17.832 20.124 C 18.254 19.861,18.420 19.641,18.200 19.634 C 17.980 19.626,17.036 20.201,16.103 20.910 M276.810 19.726 C 277.409 20.374,280.095 21.997,279.618 21.422 C 279.310 21.051,278.505 20.466,277.829 20.123 C 277.153 19.779,276.695 19.601,276.810 19.726 M281.469 24.083 C 282.091 25.091,282.658 25.861,282.729 25.795 C 282.959 25.581,281.674 23.359,280.995 22.796 C 280.633 22.496,280.847 23.075,281.469 24.083 M11.843 27.033 C 11.492 27.947,11.555 372.510,11.906 373.062 C 12.068 373.316,12.200 295.421,12.200 199.962 C 12.200 104.503,12.174 26.400,12.143 26.400 C 12.111 26.400,11.976 26.685,11.843 27.033 M283.134 33.212 L 283.267 40.001 282.334 40.375 C 281.783 40.596,281.655 40.760,282.020 40.775 C 283.406 40.831,283.601 39.960,283.572 33.820 C 283.556 30.509,283.421 27.490,283.272 27.111 C 283.122 26.733,283.060 29.478,283.134 33.212 M278.878 41.923 C 274.569 44.202,266.125 51.867,249.947 68.184 C 249.808 68.324,248.548 67.658,247.147 66.703 C 245.746 65.748,244.060 64.728,243.400 64.436 C 242.740 64.145,241.887 63.748,241.505 63.553 C 241.123 63.359,240.493 63.202,240.105 63.205 C 239.717 63.208,240.763 63.805,242.429 64.532 C 244.095 65.260,246.326 66.518,247.386 67.327 C 249.965 69.296,248.932 69.980,259.755 59.139 C 270.292 48.584,275.500 44.009,278.955 42.270 C 280.190 41.648,281.200 41.063,281.200 40.970 C 281.200 40.703,281.124 40.735,278.878 41.923 M282.200 53.674 C 280.546 54.603,258.000 76.492,258.000 77.169 C 258.000 77.308,258.720 78.380,259.601 79.552 C 261.516 82.100,262.547 84.274,263.706 88.200 L 264.296 90.200 273.848 90.200 L 283.400 90.200 283.504 71.700 C 283.561 61.525,283.471 53.205,283.304 53.212 C 283.137 53.219,282.640 53.427,282.200 53.674 M283.104 71.900 L 283.000 89.800 273.859 89.800 L 264.718 89.800 263.607 86.491 C 262.974 84.604,261.617 81.853,260.451 80.091 L 258.405 77.000 268.244 67.200 C 278.385 57.100,281.776 54.000,282.684 54.000 C 283.110 54.000,283.189 57.351,283.104 71.900 M42.291 56.289 C 43.001 56.377,44.261 56.379,45.091 56.292 C 45.921 56.205,45.340 56.133,43.800 56.131 C 42.260 56.129,41.581 56.200,42.291 56.289 M113.091 56.289 C 113.801 56.377,115.061 56.379,115.891 56.292 C 116.721 56.205,116.140 56.133,114.600 56.131 C 113.060 56.129,112.381 56.200,113.091 56.289 M37.800 57.089 C 35.730 57.926,33.263 59.615,32.000 61.058 L 31.000 62.200 32.182 61.200 C 32.832 60.650,33.626 59.959,33.946 59.664 C 34.572 59.088,37.845 57.524,39.800 56.867 C 40.624 56.590,40.750 56.460,40.200 56.452 C 39.760 56.446,38.680 56.733,37.800 57.089 M47.200 56.770 C 47.530 57.000,48.098 57.191,48.462 57.194 C 50.662 57.214,55.836 61.413,57.674 64.669 L 58.876 66.800 78.805 66.800 C 98.496 66.800,100.000 66.735,100.000 65.877 C 100.000 65.585,99.841 65.599,99.520 65.920 C 99.159 66.281,94.063 66.399,79.020 66.395 L 59.000 66.391 58.200 64.720 C 57.100 62.422,53.801 59.117,51.398 57.905 C 49.316 56.856,46.060 55.975,47.200 56.770 M108.800 57.066 C 105.802 58.111,102.698 60.575,100.956 63.292 C 99.455 65.634,99.837 65.555,101.569 63.165 C 103.848 60.019,106.277 58.326,110.600 56.868 C 111.260 56.645,111.530 56.458,111.200 56.451 C 110.870 56.444,109.790 56.721,108.800 57.066 M118.800 56.916 C 126.360 59.531,130.338 64.926,130.450 72.715 C 130.493 75.687,130.544 75.935,130.798 74.400 C 132.044 66.864,125.952 57.858,118.800 56.665 L 117.400 56.431 118.800 56.916 M232.105 62.287 C 232.714 62.379,233.614 62.377,234.105 62.282 C 234.597 62.187,234.100 62.111,233.000 62.114 C 231.900 62.117,231.497 62.195,232.105 62.287 M29.280 64.900 C 25.749 72.275,26.890 78.896,32.663 84.540 C 34.370 86.208,38.597 88.407,40.057 88.387 C 40.606 88.379,40.010 88.033,38.631 87.559 C 28.729 84.153,24.506 71.877,30.394 63.608 C 30.867 62.944,31.079 62.400,30.865 62.400 C 30.652 62.400,29.938 63.525,29.280 64.900 M226.200 62.863 C 225.540 63.083,224.749 63.343,224.443 63.441 C 224.136 63.539,223.972 63.705,224.078 63.811 C 224.184 63.917,224.826 63.810,225.506 63.573 C 226.186 63.336,227.610 62.996,228.671 62.818 L 230.600 62.494 229.000 62.479 C 228.120 62.470,226.860 62.643,226.200 62.863 M235.233 62.544 C 235.325 62.623,236.300 62.801,237.400 62.941 C 238.765 63.114,239.210 63.070,238.800 62.803 C 238.259 62.450,234.836 62.201,235.233 62.544 M221.807 64.524 C 218.326 66.614,216.057 68.641,206.098 78.552 L 194.796 89.800 171.298 90.030 C 150.582 90.234,147.587 90.341,146.000 90.937 C 144.834 91.375,144.622 91.534,145.400 91.390 C 149.408 90.645,155.214 90.448,173.783 90.425 L 194.566 90.400 205.569 79.500 C 211.620 73.505,216.668 68.509,216.786 68.398 C 217.636 67.595,220.126 65.945,221.800 65.076 C 222.900 64.505,223.530 64.039,223.200 64.042 C 222.870 64.045,222.243 64.261,221.807 64.524 M41.182 68.513 C 38.297 70.786,38.637 75.072,41.821 76.583 C 46.343 78.729,50.470 73.186,47.159 69.414 C 45.815 67.883,42.596 67.398,41.182 68.513 M111.747 68.709 C 107.956 71.780,110.824 78.049,115.545 77.012 C 118.942 76.266,120.244 71.446,117.671 69.147 C 116.128 67.768,113.177 67.550,111.747 68.709 M227.600 74.848 C 225.460 75.669,125.200 174.895,125.200 176.191 C 125.200 176.719,150.071 201.600,150.599 201.600 C 151.176 201.600,192.000 160.695,192.000 160.117 C 192.000 159.853,191.346 159.327,190.546 158.947 C 174.788 151.470,177.407 125.021,194.400 120.035 C 195.390 119.744,196.722 119.348,197.360 119.153 C 197.998 118.959,206.467 118.800,216.180 118.800 L 233.841 118.800 242.269 110.300 C 250.983 101.513,251.941 100.239,252.822 96.275 C 253.920 91.331,252.249 87.830,245.612 81.171 C 238.473 74.007,233.937 72.415,227.600 74.848 M129.800 77.200 C 129.650 77.673,129.617 78.150,129.727 78.260 C 129.837 78.370,130.050 78.073,130.200 77.600 C 130.350 77.127,130.383 76.650,130.273 76.540 C 130.163 76.430,129.950 76.727,129.800 77.200 M58.437 78.900 C 57.463 81.451,53.888 85.214,51.000 86.727 C 50.120 87.188,49.634 87.573,49.919 87.582 C 51.631 87.641,56.445 83.426,58.123 80.400 L 59.122 78.600 79.065 78.496 L 99.009 78.393 100.281 80.520 C 102.639 84.462,108.054 88.462,110.911 88.372 C 111.446 88.355,111.084 88.122,110.000 87.786 C 105.942 86.528,102.079 83.262,99.919 79.262 L 99.237 78.000 79.009 78.000 L 58.780 78.000 58.437 78.900 M128.583 80.179 C 126.508 84.551,120.997 87.938,115.325 88.327 C 112.784 88.501,112.191 88.631,113.200 88.793 C 116.759 89.362,122.118 87.605,125.261 84.839 C 127.129 83.195,129.886 79.353,129.486 78.952 C 129.366 78.833,128.960 79.385,128.583 80.179 M224.942 81.034 C 227.306 81.644,229.675 82.734,231.389 83.999 C 232.859 85.085,242.400 94.790,242.400 95.199 C 242.400 95.420,242.580 95.600,242.800 95.600 C 243.020 95.600,243.200 95.855,243.200 96.167 C 243.200 96.478,243.335 96.793,243.500 96.867 C 244.052 97.112,245.600 100.464,245.600 101.414 C 245.600 101.930,245.780 102.464,246.000 102.600 C 247.546 103.555,246.442 105.225,239.892 111.833 L 233.384 118.400 215.220 118.400 C 202.741 118.400,196.610 118.543,195.628 118.855 C 192.402 119.884,189.999 120.966,188.916 121.877 C 188.443 122.275,187.414 123.103,186.628 123.717 C 178.649 129.957,176.799 143.211,182.620 152.432 C 183.841 154.367,187.781 158.277,188.851 158.616 C 189.263 158.747,189.600 159.022,189.600 159.227 C 189.600 159.432,189.859 159.600,190.176 159.600 C 190.493 159.600,190.871 159.792,191.017 160.027 C 191.261 160.423,151.361 200.776,150.707 200.793 C 150.377 200.801,126.000 176.554,126.000 176.217 C 126.000 175.893,220.164 81.810,221.248 81.051 C 222.369 80.267,221.974 80.268,224.942 81.034 M47.400 88.000 C 46.740 88.168,45.030 88.348,43.600 88.400 C 41.664 88.470,41.307 88.562,42.200 88.757 C 43.575 89.058,48.411 88.485,48.980 87.955 C 49.417 87.547,49.152 87.554,47.400 88.000 M142.444 92.033 C 136.055 94.589,132.267 97.743,126.790 105.067 C 125.172 107.230,123.585 109.315,123.262 109.700 C 122.940 110.085,122.845 110.400,123.052 110.400 C 123.258 110.400,123.743 109.867,124.128 109.215 C 124.513 108.563,125.053 107.798,125.327 107.515 C 125.602 107.232,126.268 106.370,126.807 105.600 C 129.185 102.208,133.114 98.017,135.600 96.223 C 137.166 95.093,138.121 94.549,141.695 92.750 C 142.077 92.557,142.651 92.400,142.971 92.400 C 143.291 92.400,143.664 92.220,143.800 92.000 C 144.099 91.516,143.714 91.525,142.444 92.033 M149.400 102.041 C 145.241 102.977,141.004 105.717,138.144 109.317 C 135.991 112.029,128.738 121.759,127.199 124.000 C 126.671 124.770,126.131 125.490,126.000 125.600 C 125.869 125.710,125.323 126.430,124.786 127.200 C 124.250 127.970,123.585 128.870,123.308 129.200 C 123.031 129.530,120.469 132.950,117.615 136.800 C 114.761 140.650,112.277 143.980,112.094 144.200 C 108.813 148.145,107.467 151.694,108.123 154.673 C 109.519 161.019,116.789 164.887,122.143 162.133 C 123.643 161.361,182.800 102.659,182.800 101.942 C 182.800 101.487,151.449 101.579,149.400 102.041 M262.921 102.500 C 262.693 102.995,262.263 103.940,261.966 104.600 C 260.674 107.463,258.509 109.966,249.240 119.313 C 236.950 131.706,240.751 130.400,216.976 130.400 C 195.607 130.400,196.174 130.301,192.800 134.630 C 190.314 137.820,190.569 142.870,193.424 146.954 C 194.464 148.443,199.057 150.987,198.200 149.600 C 198.064 149.380,197.612 149.200,197.195 149.200 C 196.211 149.200,192.400 145.389,192.400 144.405 C 192.400 143.988,192.220 143.536,192.000 143.400 C 190.051 142.195,192.313 135.068,195.384 132.739 C 198.008 130.749,197.416 130.800,217.904 130.800 C 240.895 130.800,237.214 132.050,249.023 120.231 C 260.016 109.228,260.363 108.828,262.326 104.900 L 263.775 102.000 275.988 102.001 C 282.704 102.002,291.845 102.120,296.300 102.265 L 304.400 102.527 304.400 146.416 L 304.400 190.305 302.623 190.753 C 298.243 191.855,290.476 190.994,284.889 188.787 C 278.258 186.166,274.241 182.130,270.030 173.858 C 262.454 158.976,257.380 156.091,235.400 154.172 C 230.967 153.785,231.830 154.323,236.441 154.821 C 248.164 156.088,250.310 156.389,252.345 157.052 C 259.917 159.520,264.695 164.166,269.261 173.501 C 273.145 181.440,277.472 186.110,283.400 188.757 C 284.060 189.052,284.913 189.452,285.295 189.647 C 285.677 189.841,286.341 190.000,286.771 190.000 C 287.201 190.000,287.652 190.161,287.774 190.358 C 288.331 191.259,302.491 192.007,303.973 191.214 L 304.800 190.772 304.800 146.186 L 304.800 101.600 284.068 101.600 L 263.335 101.600 262.921 102.500 M316.499 157.698 L 316.600 213.800 352.400 213.800 L 388.200 213.800 388.400 205.200 C 388.640 194.905,389.602 192.400,393.314 192.400 C 393.885 192.400,394.457 192.231,394.585 192.024 C 395.046 191.279,391.785 192.117,390.500 193.074 C 388.138 194.831,388.000 195.476,388.000 204.780 L 388.000 213.200 352.399 213.200 L 316.797 213.200 316.899 157.700 L 317.000 102.200 338.400 102.075 C 350.170 102.006,366.145 102.072,373.900 102.221 L 388.000 102.493 388.000 137.185 C 388.000 174.660,387.914 173.109,390.090 175.056 C 391.248 176.093,393.322 176.916,394.268 176.716 C 394.733 176.618,394.253 176.307,392.957 175.867 C 390.928 175.178,389.648 174.132,388.960 172.600 C 388.761 172.158,388.511 156.157,388.400 136.800 L 388.200 101.800 352.299 101.698 L 316.397 101.596 316.499 157.698 M181.414 102.423 C 181.758 102.979,123.810 160.861,122.039 161.731 C 116.153 164.622,108.657 159.739,108.636 153.000 C 108.624 149.515,109.156 148.604,117.501 137.800 C 117.785 137.432,120.644 133.581,122.400 131.200 C 140.549 106.592,141.709 105.303,147.800 102.968 C 150.181 102.055,180.879 101.557,181.414 102.423 M39.713 109.161 C 23.906 113.247,23.149 135.281,38.627 140.744 C 45.809 143.278,55.081 139.561,58.202 132.896 L 59.000 131.191 64.400 131.296 L 69.800 131.400 69.800 146.400 L 69.800 161.400 50.400 161.600 C 28.936 161.821,29.881 161.696,28.213 164.542 L 27.200 166.270 27.200 177.686 C 27.200 190.237,27.323 191.023,29.587 192.928 C 31.378 194.435,31.700 194.448,63.071 194.319 C 99.618 194.168,95.739 195.977,95.923 178.999 C 96.062 166.160,95.429 162.400,93.130 162.400 C 92.903 162.400,93.260 163.019,93.924 163.775 C 95.523 165.596,95.722 167.622,95.536 180.249 C 95.313 195.432,99.399 193.800,61.600 193.800 C 23.539 193.800,27.600 195.687,27.600 178.003 C 27.600 165.649,27.705 164.993,29.976 163.081 L 31.261 162.000 50.331 161.994 C 60.819 161.991,69.627 161.844,69.905 161.667 C 70.300 161.416,70.387 158.046,70.305 146.173 L 70.200 131.000 64.544 130.889 L 58.888 130.779 57.691 132.889 C 50.142 146.199,31.088 142.874,27.956 127.700 C 26.721 121.715,30.655 113.632,36.008 111.156 C 36.774 110.802,37.923 110.262,38.561 109.956 C 44.759 106.988,56.021 112.035,58.520 118.900 C 58.754 119.543,59.546 119.593,68.287 119.514 L 77.800 119.429 68.532 119.214 C 63.435 119.097,59.183 118.910,59.083 118.800 C 58.983 118.690,58.605 118.017,58.243 117.305 C 56.897 114.658,51.579 110.000,49.902 110.000 C 49.604 110.000,49.167 109.807,48.931 109.571 C 48.388 109.028,41.426 108.718,39.713 109.161 M112.571 124.100 C 107.125 131.415,102.227 137.985,101.687 138.700 C 101.147 139.415,100.861 139.993,101.053 139.985 C 101.244 139.976,102.300 138.703,103.400 137.156 C 104.500 135.608,105.703 133.950,106.072 133.471 C 106.442 132.992,109.484 128.910,112.832 124.400 C 116.179 119.890,119.670 115.210,120.589 114.000 C 122.454 111.545,122.936 110.800,122.660 110.800 C 122.558 110.800,118.017 116.785,112.571 124.100 M78.600 120.240 C 79.040 120.578,79.635 120.990,79.923 121.156 C 81.409 122.012,81.564 124.068,81.582 143.092 L 81.600 161.585 82.500 161.787 C 83.957 162.116,92.390 162.227,92.075 161.914 C 91.917 161.756,89.630 161.576,86.994 161.514 L 82.200 161.400 82.000 142.400 C 81.782 121.680,81.797 121.807,79.435 120.259 C 78.169 119.430,77.526 119.415,78.600 120.240 M41.726 120.966 C 40.236 121.637,39.200 123.410,39.200 125.291 C 39.200 129.324,44.109 131.171,47.040 128.240 C 50.606 124.674,46.370 118.877,41.726 120.966 M99.530 141.900 C 98.479 143.514,97.395 145.954,97.646 146.140 C 97.731 146.202,98.458 144.936,99.263 143.327 C 100.900 140.051,100.967 139.692,99.530 141.900 M97.067 147.067 C 96.920 147.213,96.818 147.978,96.840 148.767 L 96.880 150.200 97.246 148.640 C 97.615 147.068,97.559 146.575,97.067 147.067 M200.000 150.403 C 201.445 150.734,205.506 151.240,212.800 151.997 C 215.110 152.237,218.170 152.623,219.600 152.854 C 221.030 153.086,222.920 153.213,223.800 153.138 C 224.765 153.055,222.939 152.718,219.200 152.290 C 210.421 151.285,206.594 150.819,203.523 150.381 C 200.128 149.898,197.854 149.912,200.000 150.403 M96.619 154.000 C 96.992 162.126,101.392 169.106,108.232 172.422 L 111.064 173.794 110.883 175.681 C 110.747 177.091,110.904 177.910,111.506 178.930 L 112.310 180.293 86.720 205.846 C 72.646 219.901,60.696 232.071,60.165 232.892 C 58.632 235.263,59.218 239.525,61.257 240.828 C 61.565 241.024,60.200 243.264,52.623 255.000 C 50.952 257.587,50.718 258.000,50.919 258.000 C 51.067 258.000,55.339 251.558,60.296 243.859 C 62.030 241.166,62.048 241.102,61.331 240.259 C 60.008 238.704,59.600 237.635,59.600 235.721 L 59.600 233.831 86.204 207.199 L 112.808 180.567 111.960 178.811 C 111.322 177.491,111.170 176.627,111.347 175.334 L 111.583 173.614 109.091 172.378 C 101.544 168.634,97.687 162.757,96.783 153.621 L 96.445 150.200 96.619 154.000 M226.600 153.600 C 227.260 153.768,228.790 153.904,230.000 153.903 L 232.200 153.900 230.400 153.580 C 227.919 153.138,224.850 153.155,226.600 153.600 M197.174 171.435 C 192.128 176.463,188.000 180.807,188.000 181.088 C 188.000 181.500,195.042 181.600,224.043 181.600 L 260.087 181.600 259.814 180.515 C 259.456 179.085,257.129 174.237,256.720 174.067 C 256.544 173.993,256.400 173.714,256.400 173.446 C 256.400 172.694,252.924 169.294,251.484 168.637 C 249.516 167.738,247.388 167.289,242.800 166.805 C 240.490 166.561,237.340 166.199,235.800 166.001 C 230.972 165.380,226.345 164.831,222.200 164.387 C 220.000 164.152,217.030 163.794,215.600 163.591 C 214.170 163.389,211.920 163.130,210.600 163.015 C 209.280 162.900,207.783 162.691,207.274 162.549 C 206.472 162.327,205.114 163.522,197.174 171.435 M213.600 164.000 C 215.250 164.203,218.310 164.559,220.400 164.792 C 222.490 165.025,227.170 165.567,230.800 165.997 C 234.430 166.427,239.290 166.977,241.600 167.219 C 251.583 168.268,254.211 169.734,257.192 175.919 C 257.903 177.394,258.645 178.913,258.842 179.295 C 259.881 181.310,261.916 181.200,223.700 181.198 L 188.200 181.195 197.240 172.176 L 206.280 163.156 208.440 163.394 C 209.628 163.525,211.950 163.797,213.600 164.000 M39.287 177.897 L 39.400 182.600 60.800 182.711 C 86.950 182.846,84.053 183.450,83.913 177.889 L 83.800 173.400 61.487 173.297 L 39.175 173.193 39.287 177.897 M97.294 211.900 C 84.563 224.605,73.921 235.304,73.644 235.676 C 73.153 236.338,88.702 252.616,90.477 253.297 C 90.887 253.455,96.253 248.342,107.438 237.138 C 116.437 228.123,124.286 220.490,124.880 220.174 C 127.102 218.994,130.937 220.014,132.043 222.080 C 132.275 222.514,132.571 222.762,132.701 222.633 C 133.518 221.815,129.515 219.200,127.446 219.200 C 124.820 219.200,123.812 220.071,107.498 236.420 C 98.508 245.429,90.937 252.800,90.673 252.800 C 90.080 252.800,74.000 236.758,74.000 236.167 C 74.000 235.072,120.817 189.116,121.422 189.618 C 121.752 189.892,127.544 195.600,134.294 202.304 C 146.346 214.272,148.181 215.952,148.668 215.465 C 148.802 215.332,148.481 215.050,147.955 214.840 C 147.430 214.630,141.244 208.685,134.209 201.629 C 127.174 194.573,121.198 188.800,120.930 188.800 C 120.662 188.800,110.026 199.195,97.294 211.900 M331.194 191.542 C 325.856 194.382,327.897 202.400,333.958 202.400 C 337.786 202.400,339.996 200.313,339.999 196.694 C 340.002 192.083,335.323 189.344,331.194 191.542 M337.601 192.278 C 340.523 194.726,340.073 199.826,336.788 201.488 C 331.193 204.319,326.032 197.335,330.310 192.721 C 331.864 191.044,335.840 190.802,337.601 192.278 M164.962 203.667 C 158.972 209.644,153.650 214.767,153.135 215.053 C 152.621 215.338,152.359 215.578,152.553 215.586 C 153.532 215.625,156.278 213.139,165.784 203.606 L 176.167 193.193 222.446 193.297 C 247.899 193.354,268.640 193.265,268.538 193.100 C 268.436 192.935,247.540 192.800,222.103 192.800 L 175.853 192.800 164.962 203.667 M269.340 193.903 C 269.496 194.156,270.191 194.767,270.884 195.260 C 271.577 195.754,272.017 195.950,271.860 195.697 C 271.704 195.444,271.009 194.833,270.316 194.340 C 269.623 193.846,269.183 193.650,269.340 193.903 M281.000 200.400 C 281.440 200.589,282.070 200.744,282.400 200.744 C 282.778 200.744,282.704 200.617,282.200 200.400 C 281.760 200.211,281.130 200.056,280.800 200.056 C 280.422 200.056,280.496 200.183,281.000 200.400 M283.800 201.200 C 284.240 201.389,284.960 201.544,285.400 201.544 L 286.200 201.544 285.400 201.200 C 284.960 201.011,284.240 200.856,283.800 200.856 L 283.000 200.856 283.800 201.200 M287.633 201.744 C 287.725 201.823,288.340 202.008,289.000 202.156 C 289.876 202.352,290.038 202.315,289.600 202.018 C 289.060 201.653,287.232 201.398,287.633 201.744 M149.905 215.883 C 150.402 215.979,151.122 215.975,151.505 215.875 C 151.887 215.775,151.480 215.696,150.600 215.701 C 149.720 215.705,149.407 215.787,149.905 215.883 M286.144 219.569 C 285.453 219.990,284.745 220.565,284.571 220.846 C 284.398 221.127,284.783 220.989,285.428 220.540 C 286.072 220.090,286.960 219.520,287.400 219.273 C 287.840 219.026,288.020 218.820,287.800 218.814 C 287.580 218.808,286.835 219.148,286.144 219.569 M132.870 224.926 C 132.831 225.986,132.590 227.246,132.333 227.726 C 131.773 228.774,94.547 266.053,93.400 266.715 C 92.850 267.032,92.784 267.179,93.190 267.188 C 93.976 267.204,132.243 228.945,132.810 227.577 C 133.053 226.990,133.181 225.720,133.096 224.755 L 132.940 223.000 132.870 224.926 M283.293 297.800 C 283.236 338.500,283.096 372.250,282.983 372.800 L 282.777 373.800 283.190 372.862 C 283.469 372.227,283.569 348.060,283.500 297.862 L 283.398 223.800 283.293 297.800 M64.977 257.269 C 62.350 261.267,60.142 264.777,60.071 265.069 C 60.000 265.361,59.775 265.600,59.571 265.600 C 59.367 265.600,59.200 265.870,59.200 266.200 C 59.200 266.530,59.020 266.800,58.800 266.800 C 58.580 266.800,58.400 266.990,58.400 267.221 C 58.400 267.453,57.955 268.298,57.411 269.098 C 56.866 269.899,56.514 270.647,56.626 270.760 C 56.908 271.041,59.600 269.559,59.600 269.123 C 59.600 268.930,59.240 268.965,58.800 269.200 C 58.282 269.477,58.000 269.487,58.000 269.226 C 58.000 268.591,70.044 250.400,70.464 250.400 C 71.446 250.400,76.843 256.466,76.370 257.036 C 76.108 257.352,72.411 259.959,68.155 262.831 C 63.898 265.702,60.300 268.238,60.159 268.466 C 59.789 269.065,60.817 268.447,65.053 265.522 C 67.063 264.135,70.393 261.850,72.453 260.444 C 78.353 256.420,78.155 257.174,74.324 253.324 C 70.030 249.007,70.551 248.788,64.977 257.269 M48.153 261.900 C 35.894 280.574,35.545 281.764,40.773 287.060 C 44.206 290.538,51.610 290.633,54.000 287.229 C 54.110 287.072,58.675 283.897,64.145 280.172 C 69.614 276.447,76.694 271.622,79.877 269.449 L 85.665 265.497 86.816 266.349 C 87.449 266.817,88.200 267.198,88.484 267.196 C 88.768 267.194,88.218 266.724,87.263 266.151 L 85.525 265.110 77.410 270.655 C 57.742 284.094,50.927 288.664,49.881 289.116 C 44.899 291.271,38.400 286.337,38.400 280.400 C 38.400 277.482,38.039 278.149,47.381 263.800 C 50.873 258.436,50.895 258.400,50.649 258.400 C 50.540 258.400,49.416 259.975,48.153 261.900 M89.200 267.353 C 89.200 267.693,91.105 267.842,91.827 267.559 C 92.374 267.345,92.103 267.248,90.900 267.228 C 89.965 267.213,89.200 267.269,89.200 267.353 M110.800 277.151 C 106.053 278.210,99.138 284.295,99.211 287.350 C 99.217 287.598,99.790 286.751,100.485 285.470 C 104.976 277.193,116.518 274.619,123.900 280.249 C 124.615 280.794,125.200 281.094,125.200 280.914 C 125.200 280.472,121.386 278.000,120.704 278.000 C 120.405 278.000,119.970 277.810,119.738 277.578 C 119.206 277.046,112.670 276.734,110.800 277.151 M183.400 277.174 C 182.960 277.356,182.241 277.932,181.803 278.453 C 181.040 279.359,181.055 279.357,182.135 278.400 L 183.264 277.400 223.460 277.294 C 268.044 277.177,265.581 277.038,267.246 279.768 C 267.659 280.446,267.998 280.772,267.999 280.494 C 267.999 280.216,267.384 279.316,266.631 278.494 L 265.262 277.000 224.731 276.921 C 202.439 276.878,183.840 276.992,183.400 277.174 M180.636 280.043 C 180.229 281.282,179.600 284.913,179.600 286.023 L 179.600 287.206 154.736 287.103 L 129.872 287.000 129.023 285.484 C 127.923 283.520,125.979 281.087,125.718 281.348 C 125.606 281.460,126.065 282.141,126.738 282.861 C 127.411 283.582,128.359 284.942,128.844 285.885 L 129.726 287.600 154.820 287.600 C 182.970 287.600,180.400 287.915,180.400 284.465 C 180.400 283.436,180.577 281.978,180.793 281.224 C 181.166 279.925,181.024 278.861,180.636 280.043 M268.080 298.600 C 268.080 308.280,268.224 315.750,268.400 315.200 C 268.576 314.650,268.720 307.180,268.720 298.600 C 268.720 290.020,268.576 282.550,268.400 282.000 C 268.224 281.450,268.080 288.920,268.080 298.600 M98.649 288.615 C 98.512 288.973,98.416 289.656,98.436 290.133 C 98.462 290.747,98.585 290.608,98.859 289.656 C 99.257 288.272,99.094 287.458,98.649 288.615 M112.526 288.985 C 109.570 290.271,109.115 294.890,111.757 296.800 C 114.946 299.107,118.954 297.107,118.954 293.209 C 118.954 289.597,115.833 287.547,112.526 288.985 M191.867 288.667 C 191.224 289.309,191.574 308.304,192.233 308.557 C 193.035 308.865,241.186 308.771,250.000 308.445 L 256.600 308.200 256.707 298.850 C 256.783 292.289,256.679 289.336,256.359 288.950 C 255.872 288.364,192.448 288.085,191.867 288.667 M98.109 293.200 C 98.109 294.190,98.187 294.595,98.282 294.100 C 98.378 293.605,98.378 292.795,98.282 292.300 C 98.187 291.805,98.109 292.210,98.109 293.200 M98.416 296.200 C 98.400 299.193,101.766 304.308,105.377 306.777 C 113.224 312.143,124.653 309.336,129.019 300.970 L 129.839 299.400 154.719 299.297 L 179.600 299.194 179.611 307.097 C 179.629 319.207,180.537 320.382,189.900 320.393 L 195.200 320.400 195.200 323.734 L 195.200 327.067 189.100 333.345 L 183.000 339.622 156.508 339.611 L 130.016 339.600 129.153 337.908 C 128.182 336.004,123.562 331.189,122.737 331.221 C 122.442 331.233,122.650 331.538,123.200 331.900 C 124.761 332.928,127.739 336.093,128.383 337.409 C 129.764 340.232,127.226 340.000,156.679 340.000 L 183.235 340.000 189.417 333.700 L 195.600 327.400 195.500 323.800 L 195.400 320.200 189.800 320.000 C 180.718 319.676,180.641 319.580,180.477 308.282 C 180.401 303.075,180.190 299.629,179.928 299.313 C 179.312 298.571,130.236 298.559,129.608 299.300 C 129.376 299.575,128.671 300.589,128.042 301.554 C 120.451 313.192,103.794 311.164,99.326 298.058 C 98.828 296.596,98.419 295.760,98.416 296.200 M41.447 315.924 C 41.337 316.102,42.271 316.182,43.523 316.102 C 46.290 315.924,47.964 316.809,49.164 319.083 C 49.604 319.917,49.973 320.347,49.982 320.038 C 50.064 317.435,42.705 313.888,41.447 315.924 M68.990 316.016 C 68.821 316.289,69.123 316.338,69.866 316.160 C 71.399 315.792,71.544 315.600,70.290 315.600 C 69.717 315.600,69.132 315.787,68.990 316.016 M72.608 315.972 C 75.712 316.716,77.200 318.621,77.200 321.848 C 77.200 327.900,69.987 330.092,66.500 325.100 C 66.005 324.391,65.600 324.021,65.600 324.277 C 65.600 325.219,68.252 327.524,69.906 328.019 C 74.234 329.316,78.623 325.128,77.760 320.526 C 77.359 318.388,74.463 315.586,72.711 315.641 L 71.400 315.682 72.608 315.972 M39.320 317.300 C 38.239 318.486,37.593 319.777,37.630 320.674 C 37.648 321.082,37.875 320.808,38.150 320.047 C 38.420 319.302,39.156 318.177,39.787 317.547 C 40.417 316.916,40.755 316.400,40.536 316.400 C 40.318 316.400,39.771 316.805,39.320 317.300 M66.670 317.700 C 65.342 319.478,64.693 321.642,65.133 322.829 C 65.424 323.618,65.519 323.384,65.677 321.479 C 65.838 319.540,66.081 318.954,67.212 317.787 C 67.952 317.024,68.351 316.400,68.099 316.400 C 67.847 316.400,67.204 316.985,66.670 317.700 M266.832 317.642 C 265.414 319.560,263.851 320.000,258.446 320.000 C 251.895 320.000,252.400 319.526,252.400 325.669 C 252.400 330.967,252.216 331.798,250.650 333.553 L 249.800 334.505 250.700 333.956 C 252.445 332.892,252.990 330.999,253.132 325.500 L 253.264 320.400 258.477 320.400 C 264.161 320.400,266.030 319.834,267.436 317.690 C 268.373 316.259,267.884 316.220,266.832 317.642 M207.467 320.267 C 207.320 320.413,207.189 322.258,207.176 324.367 C 207.140 330.158,206.785 331.674,204.995 333.678 C 200.871 338.295,189.297 350.017,188.408 350.478 C 187.617 350.888,181.166 351.043,158.419 351.200 L 129.439 351.400 128.619 353.000 C 123.285 363.417,107.627 364.276,101.368 354.495 C 100.768 353.557,100.198 352.869,100.100 352.967 C 99.750 353.317,102.440 356.779,104.153 358.183 C 111.893 364.525,123.062 362.484,128.680 353.702 L 130.025 351.600 158.363 351.600 C 182.211 351.600,186.922 351.508,188.090 351.020 C 189.567 350.403,205.732 334.017,206.780 332.075 C 207.173 331.347,207.413 329.290,207.526 325.700 L 207.693 320.400 224.246 320.400 L 240.800 320.400 240.840 325.100 C 240.862 327.685,241.024 330.250,241.200 330.800 C 241.397 331.415,241.536 329.716,241.560 326.380 C 241.588 322.650,241.450 320.810,241.120 320.480 C 240.598 319.958,207.982 319.751,207.467 320.267 M37.632 323.041 C 37.553 325.131,41.238 328.379,43.704 328.393 C 46.223 328.408,50.037 325.482,49.984 323.575 C 49.975 323.259,49.683 323.540,49.334 324.200 C 46.372 329.806,40.139 329.044,37.880 322.800 C 37.731 322.389,37.653 322.465,37.632 323.041 M111.600 329.234 C 106.954 330.434,103.879 332.335,101.511 335.471 C 100.618 336.654,99.983 337.716,100.098 337.832 C 100.214 337.947,100.690 337.424,101.157 336.670 C 104.933 330.559,113.789 327.780,120.520 330.592 C 122.343 331.354,122.496 331.062,120.700 330.249 C 117.879 328.972,114.202 328.562,111.600 329.234 M241.975 332.721 C 242.551 333.836,244.698 335.208,245.800 335.167 C 246.378 335.145,246.267 335.021,245.400 334.719 C 244.740 334.490,243.592 333.739,242.850 333.051 C 241.718 332.002,241.576 331.949,241.975 332.721 M248.200 334.800 C 247.429 335.131,247.431 335.145,248.276 335.172 C 248.758 335.187,249.264 335.020,249.400 334.800 C 249.692 334.327,249.301 334.327,248.200 334.800 M99.155 339.500 C 98.921 340.105,98.656 341.230,98.566 342.000 C 98.420 343.251,98.461 343.208,98.954 341.600 C 99.258 340.610,99.636 339.485,99.796 339.100 C 99.955 338.715,99.972 338.400,99.833 338.400 C 99.694 338.400,99.389 338.895,99.155 339.500 M40.496 339.998 C 39.261 340.751,37.600 342.935,37.605 343.800 C 37.607 344.020,38.053 343.457,38.597 342.549 C 39.467 341.098,40.585 340.281,42.800 339.480 C 43.227 339.326,43.169 339.254,42.600 339.233 C 42.160 339.217,41.213 339.561,40.496 339.998 M45.536 339.745 C 47.189 340.343,48.682 341.745,49.394 343.367 C 49.691 344.045,49.949 344.330,49.966 344.000 C 50.056 342.265,46.828 339.166,45.000 339.232 C 44.459 339.251,44.632 339.417,45.536 339.745 M68.600 339.667 C 66.417 340.874,64.800 343.337,64.800 345.453 C 64.800 347.833,67.817 351.618,69.694 351.593 C 69.972 351.590,69.490 351.185,68.622 350.693 C 66.583 349.538,65.489 347.658,65.535 345.386 C 65.595 342.378,66.668 340.956,69.800 339.730 C 70.685 339.384,70.790 339.256,70.200 339.243 C 69.760 339.233,69.040 339.423,68.600 339.667 M73.074 339.730 C 78.304 341.659,78.831 348.317,73.945 350.736 C 72.922 351.242,72.516 351.599,72.962 351.600 C 74.009 351.600,76.273 349.805,77.000 348.399 C 78.861 344.802,76.126 339.104,72.600 339.232 C 72.036 339.252,72.176 339.399,73.074 339.730 M112.126 341.580 C 110.506 342.568,110.000 343.527,110.000 345.614 C 110.000 350.879,118.118 351.619,118.994 346.433 C 119.686 342.337,115.609 339.456,112.126 341.580 M98.101 345.400 C 98.105 346.280,98.187 346.593,98.283 346.095 C 98.379 345.598,98.375 344.878,98.275 344.495 C 98.175 344.113,98.096 344.520,98.101 345.400 M48.981 348.097 C 48.448 349.203,47.611 350.108,46.581 350.691 C 45.712 351.184,45.253 351.590,45.562 351.593 C 46.987 351.610,50.312 347.935,49.924 346.772 C 49.856 346.567,49.431 347.163,48.981 348.097 M37.633 347.369 C 37.593 348.304,40.941 351.606,41.907 351.584 C 42.365 351.573,42.193 351.353,41.400 350.934 C 39.663 350.016,38.794 349.168,38.194 347.803 C 37.804 346.916,37.657 346.802,37.633 347.369 M98.427 348.451 C 98.399 349.538,99.429 352.400,99.848 352.400 C 99.979 352.400,99.950 352.085,99.785 351.700 C 99.620 351.315,99.253 350.190,98.969 349.200 C 98.583 347.850,98.447 347.663,98.427 348.451 M12.418 374.338 C 12.346 376.507,18.016 381.233,20.600 381.160 C 21.164 381.144,21.045 381.017,20.200 380.733 C 16.749 379.570,14.589 377.873,13.188 375.224 C 12.774 374.441,12.427 374.042,12.418 374.338 M281.469 375.917 C 280.847 376.925,280.633 377.504,280.995 377.204 C 281.674 376.641,282.959 374.419,282.729 374.205 C 282.658 374.139,282.091 374.909,281.469 375.917 M274.600 380.800 C 274.096 381.017,274.022 381.144,274.400 381.144 C 274.730 381.144,275.360 380.989,275.800 380.800 C 276.304 380.583,276.378 380.456,276.000 380.456 C 275.670 380.456,275.040 380.611,274.600 380.800 " stroke="none" fill="#6c5e72" fill-rule="evenodd"></path></g></svg>